<svg width="77" height="70" viewBox="0 0 77 70" fill="none" xmlns="http://www.w3.org/2000/svg">
    <path d="M60.128 40.4144C60.128 42.2908 58.5959 43.8121 56.7061 43.8121C54.8163 43.8121 53.2843 42.2908 53.2843 40.4144C53.2843 38.538 54.8163 37.0167 56.7061 37.0167C58.5959 37.0167 60.128 38.538 60.128 40.4144Z" fill="#37A849"/>
    <path d="M60.128 40.4144C60.128 42.2908 58.5959 43.8121 56.7061 43.8121C54.8163 43.8121 53.2843 42.2908 53.2843 40.4144C53.2843 38.538 54.8163 37.0167 56.7061 37.0167C58.5959 37.0167 60.128 38.538 60.128 40.4144Z" fill="url(#paint0_linear_1525_136)"/>
    <path fill-rule="evenodd" clip-rule="evenodd" d="M52.9282 0.244419C51.8838 -0.0301511 50.7915 -0.0728711 49.7285 0.118332L10.126 8.76645C5.21016 9.6673 0 13.6627 0 19.322V61.5067C0 63.7597 0.901307 65.9202 2.50561 67.5133C4.10992 69.1059 6.28576 70.001 8.55464 70.001H61.8389C64.1078 70.001 66.2836 69.1059 67.8879 67.5133C69.4922 65.9202 70.3935 63.7597 70.3935 61.5067V51.4569C71.7549 51.4569 73.0604 50.9198 74.023 49.9642C74.9856 49.0082 75.5263 47.7121 75.5263 46.3604V34.4684C75.5263 33.1167 74.9856 31.8206 74.023 30.8646C73.0604 29.909 71.7549 29.3719 70.3935 29.3719V19.322C70.3935 17.0691 69.4922 14.9086 67.8879 13.3155C66.2836 11.7228 64.1078 10.8278 61.8389 10.8278H58.417V7.32973C58.418 6.25716 58.1817 5.19746 57.7246 4.22527C57.2676 3.25349 56.6012 2.39286 55.7723 1.7052C54.9435 1.01711 53.9725 0.518574 52.9282 0.244419ZM70.3935 48.0592H50.8781L46.6785 40.4144L50.8781 32.7696H70.3935C70.8473 32.7696 71.2825 32.9487 71.6033 33.2673C71.9242 33.5858 72.1045 34.018 72.1045 34.4684V46.3604C72.1045 46.8108 71.9242 47.243 71.6033 47.5615C71.2825 47.88 70.8473 48.0592 70.3935 48.0592ZM48.3604 30.2574C48.6603 29.7116 49.2363 29.3719 49.8624 29.3719H66.9717V19.322C66.9717 17.9703 66.431 16.6742 65.4684 15.7182C64.5058 14.7626 63.2002 14.2255 61.8389 14.2255H8.55464C7.19333 14.2255 5.88779 14.7626 4.92518 15.7182C3.96258 16.6742 3.42185 17.9703 3.42185 19.322V61.5067C3.42185 62.8584 3.96258 64.1545 4.92518 65.1106C5.88779 66.0662 7.19333 66.6033 8.55464 66.6033H61.8389C63.2002 66.6033 64.5058 66.0662 65.4684 65.1106C66.431 64.1545 66.9717 62.8584 66.9717 61.5067V51.4569H49.8624C49.2363 51.4569 48.6603 51.1172 48.3604 50.5714L43.2277 41.2277C42.9491 40.7209 42.9491 40.1079 43.2277 39.601L48.3604 30.2574ZM54.9952 10.8278V7.32807C54.9957 6.75156 54.8691 6.18375 54.6241 5.66282C54.3792 5.14188 54.0219 4.68067 53.5777 4.31195C53.1335 3.94323 52.6131 3.67613 52.0534 3.52889C51.494 3.38206 50.9089 3.35925 50.3395 3.46128L17.8384 10.8278H54.9952Z" fill="#37A849"/>
    <path fill-rule="evenodd" clip-rule="evenodd" d="M52.9282 0.244419C51.8838 -0.0301511 50.7915 -0.0728711 49.7285 0.118332L10.126 8.76645C5.21016 9.6673 0 13.6627 0 19.322V61.5067C0 63.7597 0.901307 65.9202 2.50561 67.5133C4.10992 69.1059 6.28576 70.001 8.55464 70.001H61.8389C64.1078 70.001 66.2836 69.1059 67.8879 67.5133C69.4922 65.9202 70.3935 63.7597 70.3935 61.5067V51.4569C71.7549 51.4569 73.0604 50.9198 74.023 49.9642C74.9856 49.0082 75.5263 47.7121 75.5263 46.3604V34.4684C75.5263 33.1167 74.9856 31.8206 74.023 30.8646C73.0604 29.909 71.7549 29.3719 70.3935 29.3719V19.322C70.3935 17.0691 69.4922 14.9086 67.8879 13.3155C66.2836 11.7228 64.1078 10.8278 61.8389 10.8278H58.417V7.32973C58.418 6.25716 58.1817 5.19746 57.7246 4.22527C57.2676 3.25349 56.6012 2.39286 55.7723 1.7052C54.9435 1.01711 53.9725 0.518574 52.9282 0.244419ZM70.3935 48.0592H50.8781L46.6785 40.4144L50.8781 32.7696H70.3935C70.8473 32.7696 71.2825 32.9487 71.6033 33.2673C71.9242 33.5858 72.1045 34.018 72.1045 34.4684V46.3604C72.1045 46.8108 71.9242 47.243 71.6033 47.5615C71.2825 47.88 70.8473 48.0592 70.3935 48.0592ZM48.3604 30.2574C48.6603 29.7116 49.2363 29.3719 49.8624 29.3719H66.9717V19.322C66.9717 17.9703 66.431 16.6742 65.4684 15.7182C64.5058 14.7626 63.2002 14.2255 61.8389 14.2255H8.55464C7.19333 14.2255 5.88779 14.7626 4.92518 15.7182C3.96258 16.6742 3.42185 17.9703 3.42185 19.322V61.5067C3.42185 62.8584 3.96258 64.1545 4.92518 65.1106C5.88779 66.0662 7.19333 66.6033 8.55464 66.6033H61.8389C63.2002 66.6033 64.5058 66.0662 65.4684 65.1106C66.431 64.1545 66.9717 62.8584 66.9717 61.5067V51.4569H49.8624C49.2363 51.4569 48.6603 51.1172 48.3604 50.5714L43.2277 41.2277C42.9491 40.7209 42.9491 40.1079 43.2277 39.601L48.3604 30.2574ZM54.9952 10.8278V7.32807C54.9957 6.75156 54.8691 6.18375 54.6241 5.66282C54.3792 5.14188 54.0219 4.68067 53.5777 4.31195C53.1335 3.94323 52.6131 3.67613 52.0534 3.52889C51.494 3.38206 50.9089 3.35925 50.3395 3.46128L17.8384 10.8278H54.9952Z" fill="url(#paint1_linear_1525_136)"/>
    <defs>
        <linearGradient id="paint0_linear_1525_136" x1="2.73378" y1="68.6885" x2="47.7951" y2="11.3115" gradientUnits="userSpaceOnUse">
            <stop offset="0.15" stop-color="#6F2C91"/>
            <stop offset="0.721" stop-color="#32B561"/>
        </linearGradient>
        <linearGradient id="paint1_linear_1525_136" x1="2.73378" y1="68.6885" x2="47.7951" y2="11.3115" gradientUnits="userSpaceOnUse">
            <stop offset="0.15" stop-color="#6F2C91"/>
            <stop offset="0.721" stop-color="#32B561"/>
        </linearGradient>
    </defs>
</svg>
