<svg width="77" height="70" viewBox="0 0 77 70" fill="none" xmlns="http://www.w3.org/2000/svg">
    <path fill-rule="evenodd" clip-rule="evenodd" d="M35 14.5843C30.962 14.5843 27.0146 15.7817 23.6571 18.0251C20.2996 20.2685 17.6828 23.4572 16.1375 27.1879C14.5922 30.9185 14.1879 35.0236 14.9756 38.9841C15.7634 42.9445 17.7079 46.5824 20.5632 49.4377C23.4186 52.293 27.0565 54.2376 31.0169 55.0253C34.9774 55.8131 39.0825 55.4088 42.8131 53.8635C46.5438 52.3182 49.7324 49.7014 51.9758 46.3439C54.2193 42.9864 55.4167 39.039 55.4167 35.001C55.4167 29.5861 53.2656 24.3931 49.4368 20.5642C45.6079 16.7353 40.4148 14.5843 35 14.5843ZM35 52.501C31.5388 52.501 28.1554 51.4746 25.2775 49.5517C22.3997 47.6288 20.1567 44.8956 18.8321 41.6979C17.5076 38.5002 17.161 34.9816 17.8363 31.5869C18.5115 28.1922 20.1782 25.074 22.6256 22.6266C25.0731 20.1792 28.1913 18.5125 31.5859 17.8372C34.9806 17.162 38.4993 17.5085 41.697 18.8331C44.8947 20.1576 47.6278 22.4006 49.5507 25.2785C51.4736 28.1564 52.5 31.5398 52.5 35.001C52.5 39.6423 50.6563 44.0935 47.3744 47.3753C44.0925 50.6572 39.6413 52.501 35 52.501Z" fill="#32B561"/>
    <path fill-rule="evenodd" clip-rule="evenodd" d="M35 14.5843C30.962 14.5843 27.0146 15.7817 23.6571 18.0251C20.2996 20.2685 17.6828 23.4572 16.1375 27.1879C14.5922 30.9185 14.1879 35.0236 14.9756 38.9841C15.7634 42.9445 17.7079 46.5824 20.5632 49.4377C23.4186 52.293 27.0565 54.2376 31.0169 55.0253C34.9774 55.8131 39.0825 55.4088 42.8131 53.8635C46.5438 52.3182 49.7324 49.7014 51.9758 46.3439C54.2193 42.9864 55.4167 39.039 55.4167 35.001C55.4167 29.5861 53.2656 24.3931 49.4368 20.5642C45.6079 16.7353 40.4148 14.5843 35 14.5843ZM35 52.501C31.5388 52.501 28.1554 51.4746 25.2775 49.5517C22.3997 47.6288 20.1567 44.8956 18.8321 41.6979C17.5076 38.5002 17.161 34.9816 17.8363 31.5869C18.5115 28.1922 20.1782 25.074 22.6256 22.6266C25.0731 20.1792 28.1913 18.5125 31.5859 17.8372C34.9806 17.162 38.4993 17.5085 41.697 18.8331C44.8947 20.1576 47.6278 22.4006 49.5507 25.2785C51.4736 28.1564 52.5 31.5398 52.5 35.001C52.5 39.6423 50.6563 44.0935 47.3744 47.3753C44.0925 50.6572 39.6413 52.501 35 52.501Z" fill="url(#paint0_linear_1525_6)"/>
    <path fill-rule="evenodd" clip-rule="evenodd" d="M66.0741 28.4066C66.321 28.4739 66.5702 28.5419 66.8208 28.6135C67.7326 28.8726 68.5356 29.4208 69.109 30.1756C69.6823 30.9304 69.995 31.851 70 32.7989V37.1739C69.9996 38.1306 69.6856 39.0607 69.1061 39.8219C68.5267 40.5831 67.7137 41.1334 66.7917 41.3885L64.4875 42.0447C63.6039 42.3059 62.7901 42.7617 62.1058 43.3786C61.4214 43.9956 60.884 44.7579 60.5329 45.6098C60.1818 46.4616 60.026 47.3813 60.0769 48.3013C60.1278 49.2212 60.3841 50.1181 60.8271 50.926L61.9792 52.9968C62.4417 53.828 62.6208 54.7873 62.4892 55.7294C62.3576 56.6715 61.9226 57.545 61.25 58.2176L58.2167 61.251C57.5513 61.924 56.6857 62.3631 55.7496 62.5025C54.8136 62.6418 53.8575 62.4739 53.025 62.0239C52.7999 61.8994 52.5737 61.7691 52.3453 61.6375C50.4872 60.5669 48.4786 59.4097 45.6604 60.5656C42.7904 61.7426 42.2234 63.8433 41.6097 66.117C41.5467 66.3504 41.4832 66.5856 41.4167 66.8218C41.1562 67.7384 40.6036 68.5449 39.8429 69.1187C39.0822 69.6925 38.155 70.0023 37.2021 70.001H32.8271C31.8704 70.0005 30.9403 69.6866 30.1791 69.1071C29.4179 68.5276 28.8676 67.7146 28.6125 66.7926L27.9708 64.5176C27.7118 63.6308 27.2569 62.8134 26.6397 62.1259C26.0225 61.4384 25.2587 60.8983 24.4048 60.5455C23.5508 60.1928 22.6286 60.0363 21.7061 60.0877C20.7836 60.1392 19.8844 60.3971 19.075 60.8426L17.0042 61.9947C16.1715 62.4554 15.2112 62.6321 14.2691 62.4979C13.327 62.3637 12.4543 61.9259 11.7833 61.251L8.75 58.2176C8.07698 57.5523 7.63785 56.6867 7.4985 55.7506C7.35914 54.8145 7.52707 53.8585 7.97709 53.026C8.09305 52.8193 8.21401 52.6112 8.33638 52.4006C9.41432 50.5455 10.601 48.5034 9.43542 45.6614C8.25832 42.7914 6.15764 42.2244 3.88395 41.6106C3.65058 41.5476 3.41538 41.4842 3.17917 41.4176C2.26259 41.1572 1.45609 40.6046 0.882265 39.8439C0.308438 39.0832 -0.00134267 38.1559 4.37457e-06 37.2031V32.8281C0.000440145 31.8714 0.314428 30.9413 0.893884 30.1801C1.47334 29.4189 2.28632 28.8686 3.20834 28.6135L5.45417 27.9718C6.34643 27.7156 7.16934 27.2612 7.86158 26.6427C8.55382 26.0242 9.09753 25.2574 9.45218 24.3995C9.80684 23.5415 9.9633 22.6147 9.90989 21.6879C9.85649 20.7611 9.5946 19.8583 9.14375 19.0468L8.00625 17.0051C7.54553 16.1724 7.36889 15.2122 7.5031 14.2701C7.63732 13.3279 8.07508 12.4552 8.75 11.7843L11.7833 8.75098C12.4469 8.0756 13.3118 7.63373 14.2479 7.49173C15.184 7.34974 16.141 7.51527 16.975 7.96348C17.1748 8.07579 17.377 8.19335 17.5822 8.31267C19.4286 9.38642 21.5207 10.603 24.3688 9.42181C27.211 8.24298 27.8064 6.04068 28.3842 3.90319C28.4497 3.66081 28.515 3.41927 28.5833 3.18015C28.8438 2.26356 29.3964 1.45707 30.1571 0.883241C30.9178 0.309415 31.845 -0.00036611 32.7979 0.000980937H37.1729C38.1315 0.00229592 39.0631 0.318385 39.8245 0.900661C40.586 1.48294 41.1351 2.29917 41.3875 3.2239L42.0292 5.45515C42.2837 6.34867 42.7368 7.17315 43.3547 7.86704C43.9725 8.56093 44.7391 9.10631 45.5972 9.46245C46.4553 9.81859 47.3828 9.97631 48.3104 9.92382C49.238 9.87133 50.1417 9.60999 50.9542 9.15931L52.9958 8.02181C53.827 7.55927 54.7863 7.38022 55.7284 7.51179C56.6705 7.64337 57.544 8.0784 58.2167 8.75098L61.25 11.7843C61.9296 12.4518 62.3729 13.3228 62.5124 14.2651C62.6519 15.2073 62.48 16.1694 62.0229 17.0051C61.9011 17.2251 61.7733 17.4467 61.6438 17.6711C60.5801 19.5154 59.4075 21.5485 60.5646 24.3697C61.735 27.2235 63.8068 27.7884 66.0741 28.4066ZM64.4672 39.0249C66.342 38.5087 67.0833 38.3046 67.0833 37.1739C67.0833 33.8101 67.2946 32.5638 66.7686 31.9192C66.3573 31.4152 65.4953 31.2791 63.7292 30.7864C62.4199 30.4055 61.2132 29.7348 60.1984 28.8241C59.1836 27.9133 58.3869 26.7858 57.8672 25.5252C57.3476 24.2645 57.1183 22.9031 57.1965 21.5418C57.2746 20.1805 57.6582 18.8543 58.3188 17.6614C59.2076 16.0628 59.7151 15.3558 59.647 14.7094C59.5599 13.8815 58.5289 13.1529 56.1458 10.7781C55.3176 9.94985 54.3531 10.4922 53.0384 11.2315C51.1353 12.3016 48.4984 13.7844 44.4792 12.1197C40.3712 10.4226 39.485 7.24525 38.7532 4.62109C38.6926 4.40397 38.6331 4.19063 38.5729 3.98223C38.2564 2.86221 37.574 2.87028 34.7611 2.90351C34.2044 2.91008 33.5643 2.91765 32.8271 2.91765C31.6903 2.91765 31.4952 3.60245 31.0135 5.29284C30.9328 5.57588 30.8442 5.88712 30.7417 6.22806C30.3594 7.53664 29.6885 8.7428 28.7783 9.75772C27.8681 10.7726 26.7418 11.5704 25.4824 12.0924C24.223 12.6143 22.8626 12.8471 21.5013 12.7736C20.14 12.7001 18.8125 12.3222 17.6167 11.6676C17.3448 11.5159 17.0947 11.3719 16.8632 11.2386C15.3814 10.3854 14.6614 9.97083 13.8542 10.7781C13.3411 11.2887 12.8888 11.7284 12.494 12.1122C10.4874 14.0626 9.96862 14.5669 10.5292 15.5906C10.6111 15.736 10.6944 15.8823 10.7782 16.0296C12.2159 18.556 13.8275 21.3879 12.1188 25.5218C10.4328 29.6008 7.35242 30.4726 4.57953 31.2574C4.37827 31.3143 4.17863 31.3708 3.98125 31.4281C2.86177 31.7444 2.86929 32.3857 2.90248 35.2157C2.90907 35.7774 2.91667 36.4252 2.91667 37.1739C2.91667 38.3191 3.72418 38.5399 5.33012 38.9791C5.60562 39.0544 5.90463 39.1362 6.22709 39.2301C7.53762 39.6093 8.74593 40.2788 9.76234 41.1889C10.7787 42.0989 11.5772 43.2262 12.0983 44.487C12.6194 45.7479 12.8499 47.1099 12.7727 48.472C12.6955 49.8341 12.3124 51.1613 11.6521 52.3551C11.4872 52.6537 11.3292 52.9274 11.1831 53.1802C10.3732 54.5828 9.93246 55.3459 10.7479 56.1614C11.2799 56.6934 11.7348 57.1601 12.1295 57.5651C14.0499 59.5356 14.5442 60.0429 15.5604 59.4864C15.8083 59.3489 16.047 59.214 16.2792 59.0828C18.1645 58.0176 19.6172 57.1968 22.0063 57.1968C23.9784 57.1968 25.8973 57.8364 27.475 59.0197C29.0527 60.203 30.2041 61.8661 30.7563 63.7593C31.2551 65.5116 31.3837 66.3692 31.8813 66.7799C32.5183 67.3058 33.7602 67.0989 37.1583 67.0989C38.3582 67.0989 38.6622 66.0154 39.0744 64.5459C39.6642 62.4434 40.4757 59.5509 44.45 57.9114C48.728 56.1416 51.6479 57.8605 54.0748 59.2892C54.1877 59.3557 54.2995 59.4216 54.4104 59.4864C55.4221 60.0524 55.9166 59.5443 57.8159 57.5923C58.2165 57.1807 58.6794 56.7049 59.2229 56.1614C60.0409 55.3817 59.6155 54.6357 58.7223 53.0692C58.5964 52.8483 58.4611 52.6111 58.3188 52.3551C57.6582 51.1623 57.2746 49.836 57.1965 48.4747C57.1183 47.1134 57.3476 45.752 57.8672 44.4914C58.3869 43.2307 59.1836 42.1032 60.1984 41.1925C61.2132 40.2817 62.4199 39.611 63.7292 39.2301C63.9925 39.1556 64.2383 39.0879 64.4672 39.0249Z" fill="#32B561"/>
    <path fill-rule="evenodd" clip-rule="evenodd" d="M66.0741 28.4066C66.321 28.4739 66.5702 28.5419 66.8208 28.6135C67.7326 28.8726 68.5356 29.4208 69.109 30.1756C69.6823 30.9304 69.995 31.851 70 32.7989V37.1739C69.9996 38.1306 69.6856 39.0607 69.1061 39.8219C68.5267 40.5831 67.7137 41.1334 66.7917 41.3885L64.4875 42.0447C63.6039 42.3059 62.7901 42.7617 62.1058 43.3786C61.4214 43.9956 60.884 44.7579 60.5329 45.6098C60.1818 46.4616 60.026 47.3813 60.0769 48.3013C60.1278 49.2212 60.3841 50.1181 60.8271 50.926L61.9792 52.9968C62.4417 53.828 62.6208 54.7873 62.4892 55.7294C62.3576 56.6715 61.9226 57.545 61.25 58.2176L58.2167 61.251C57.5513 61.924 56.6857 62.3631 55.7496 62.5025C54.8136 62.6418 53.8575 62.4739 53.025 62.0239C52.7999 61.8994 52.5737 61.7691 52.3453 61.6375C50.4872 60.5669 48.4786 59.4097 45.6604 60.5656C42.7904 61.7426 42.2234 63.8433 41.6097 66.117C41.5467 66.3504 41.4832 66.5856 41.4167 66.8218C41.1562 67.7384 40.6036 68.5449 39.8429 69.1187C39.0822 69.6925 38.155 70.0023 37.2021 70.001H32.8271C31.8704 70.0005 30.9403 69.6866 30.1791 69.1071C29.4179 68.5276 28.8676 67.7146 28.6125 66.7926L27.9708 64.5176C27.7118 63.6308 27.2569 62.8134 26.6397 62.1259C26.0225 61.4384 25.2587 60.8983 24.4048 60.5455C23.5508 60.1928 22.6286 60.0363 21.7061 60.0877C20.7836 60.1392 19.8844 60.3971 19.075 60.8426L17.0042 61.9947C16.1715 62.4554 15.2112 62.6321 14.2691 62.4979C13.327 62.3637 12.4543 61.9259 11.7833 61.251L8.75 58.2176C8.07698 57.5523 7.63785 56.6867 7.4985 55.7506C7.35914 54.8145 7.52707 53.8585 7.97709 53.026C8.09305 52.8193 8.21401 52.6112 8.33638 52.4006C9.41432 50.5455 10.601 48.5034 9.43542 45.6614C8.25832 42.7914 6.15764 42.2244 3.88395 41.6106C3.65058 41.5476 3.41538 41.4842 3.17917 41.4176C2.26259 41.1572 1.45609 40.6046 0.882265 39.8439C0.308438 39.0832 -0.00134267 38.1559 4.37457e-06 37.2031V32.8281C0.000440145 31.8714 0.314428 30.9413 0.893884 30.1801C1.47334 29.4189 2.28632 28.8686 3.20834 28.6135L5.45417 27.9718C6.34643 27.7156 7.16934 27.2612 7.86158 26.6427C8.55382 26.0242 9.09753 25.2574 9.45218 24.3995C9.80684 23.5415 9.9633 22.6147 9.90989 21.6879C9.85649 20.7611 9.5946 19.8583 9.14375 19.0468L8.00625 17.0051C7.54553 16.1724 7.36889 15.2122 7.5031 14.2701C7.63732 13.3279 8.07508 12.4552 8.75 11.7843L11.7833 8.75098C12.4469 8.0756 13.3118 7.63373 14.2479 7.49173C15.184 7.34974 16.141 7.51527 16.975 7.96348C17.1748 8.07579 17.377 8.19335 17.5822 8.31267C19.4286 9.38642 21.5207 10.603 24.3688 9.42181C27.211 8.24298 27.8064 6.04068 28.3842 3.90319C28.4497 3.66081 28.515 3.41927 28.5833 3.18015C28.8438 2.26356 29.3964 1.45707 30.1571 0.883241C30.9178 0.309415 31.845 -0.00036611 32.7979 0.000980937H37.1729C38.1315 0.00229592 39.0631 0.318385 39.8245 0.900661C40.586 1.48294 41.1351 2.29917 41.3875 3.2239L42.0292 5.45515C42.2837 6.34867 42.7368 7.17315 43.3547 7.86704C43.9725 8.56093 44.7391 9.10631 45.5972 9.46245C46.4553 9.81859 47.3828 9.97631 48.3104 9.92382C49.238 9.87133 50.1417 9.60999 50.9542 9.15931L52.9958 8.02181C53.827 7.55927 54.7863 7.38022 55.7284 7.51179C56.6705 7.64337 57.544 8.0784 58.2167 8.75098L61.25 11.7843C61.9296 12.4518 62.3729 13.3228 62.5124 14.2651C62.6519 15.2073 62.48 16.1694 62.0229 17.0051C61.9011 17.2251 61.7733 17.4467 61.6438 17.6711C60.5801 19.5154 59.4075 21.5485 60.5646 24.3697C61.735 27.2235 63.8068 27.7884 66.0741 28.4066ZM64.4672 39.0249C66.342 38.5087 67.0833 38.3046 67.0833 37.1739C67.0833 33.8101 67.2946 32.5638 66.7686 31.9192C66.3573 31.4152 65.4953 31.2791 63.7292 30.7864C62.4199 30.4055 61.2132 29.7348 60.1984 28.8241C59.1836 27.9133 58.3869 26.7858 57.8672 25.5252C57.3476 24.2645 57.1183 22.9031 57.1965 21.5418C57.2746 20.1805 57.6582 18.8543 58.3188 17.6614C59.2076 16.0628 59.7151 15.3558 59.647 14.7094C59.5599 13.8815 58.5289 13.1529 56.1458 10.7781C55.3176 9.94985 54.3531 10.4922 53.0384 11.2315C51.1353 12.3016 48.4984 13.7844 44.4792 12.1197C40.3712 10.4226 39.485 7.24525 38.7532 4.62109C38.6926 4.40397 38.6331 4.19063 38.5729 3.98223C38.2564 2.86221 37.574 2.87028 34.7611 2.90351C34.2044 2.91008 33.5643 2.91765 32.8271 2.91765C31.6903 2.91765 31.4952 3.60245 31.0135 5.29284C30.9328 5.57588 30.8442 5.88712 30.7417 6.22806C30.3594 7.53664 29.6885 8.7428 28.7783 9.75772C27.8681 10.7726 26.7418 11.5704 25.4824 12.0924C24.223 12.6143 22.8626 12.8471 21.5013 12.7736C20.14 12.7001 18.8125 12.3222 17.6167 11.6676C17.3448 11.5159 17.0947 11.3719 16.8632 11.2386C15.3814 10.3854 14.6614 9.97083 13.8542 10.7781C13.3411 11.2887 12.8888 11.7284 12.494 12.1122C10.4874 14.0626 9.96862 14.5669 10.5292 15.5906C10.6111 15.736 10.6944 15.8823 10.7782 16.0296C12.2159 18.556 13.8275 21.3879 12.1188 25.5218C10.4328 29.6008 7.35242 30.4726 4.57953 31.2574C4.37827 31.3143 4.17863 31.3708 3.98125 31.4281C2.86177 31.7444 2.86929 32.3857 2.90248 35.2157C2.90907 35.7774 2.91667 36.4252 2.91667 37.1739C2.91667 38.3191 3.72418 38.5399 5.33012 38.9791C5.60562 39.0544 5.90463 39.1362 6.22709 39.2301C7.53762 39.6093 8.74593 40.2788 9.76234 41.1889C10.7787 42.0989 11.5772 43.2262 12.0983 44.487C12.6194 45.7479 12.8499 47.1099 12.7727 48.472C12.6955 49.8341 12.3124 51.1613 11.6521 52.3551C11.4872 52.6537 11.3292 52.9274 11.1831 53.1802C10.3732 54.5828 9.93246 55.3459 10.7479 56.1614C11.2799 56.6934 11.7348 57.1601 12.1295 57.5651C14.0499 59.5356 14.5442 60.0429 15.5604 59.4864C15.8083 59.3489 16.047 59.214 16.2792 59.0828C18.1645 58.0176 19.6172 57.1968 22.0063 57.1968C23.9784 57.1968 25.8973 57.8364 27.475 59.0197C29.0527 60.203 30.2041 61.8661 30.7563 63.7593C31.2551 65.5116 31.3837 66.3692 31.8813 66.7799C32.5183 67.3058 33.7602 67.0989 37.1583 67.0989C38.3582 67.0989 38.6622 66.0154 39.0744 64.5459C39.6642 62.4434 40.4757 59.5509 44.45 57.9114C48.728 56.1416 51.6479 57.8605 54.0748 59.2892C54.1877 59.3557 54.2995 59.4216 54.4104 59.4864C55.4221 60.0524 55.9166 59.5443 57.8159 57.5923C58.2165 57.1807 58.6794 56.7049 59.2229 56.1614C60.0409 55.3817 59.6155 54.6357 58.7223 53.0692C58.5964 52.8483 58.4611 52.6111 58.3188 52.3551C57.6582 51.1623 57.2746 49.836 57.1965 48.4747C57.1183 47.1134 57.3476 45.752 57.8672 44.4914C58.3869 43.2307 59.1836 42.1032 60.1984 41.1925C61.2132 40.2817 62.4199 39.611 63.7292 39.2301C63.9925 39.1556 64.2383 39.0879 64.4672 39.0249Z" fill="url(#paint1_linear_1525_6)"/>
    <defs>
        <linearGradient id="paint0_linear_1525_6" x1="2.53374" y1="68.6885" x2="48.2878" y2="14.6923" gradientUnits="userSpaceOnUse">
            <stop offset="0.15" stop-color="#6F2C91"/>
            <stop offset="0.721" stop-color="#32B561"/>
        </linearGradient>
        <linearGradient id="paint1_linear_1525_6" x1="2.53374" y1="68.6885" x2="48.2878" y2="14.6923" gradientUnits="userSpaceOnUse">
            <stop offset="0.15" stop-color="#6F2C91"/>
            <stop offset="0.721" stop-color="#32B561"/>
        </linearGradient>
    </defs>
</svg>
