<svg width="77" height="70" viewBox="0 0 77 70" fill="none" xmlns="http://www.w3.org/2000/svg">
    <path fill-rule="evenodd" clip-rule="evenodd" d="M60.4342 60.9286V23.7978C60.4098 23.6345 60.3711 23.4736 60.3184 23.317L60.212 23.0006V22.8737C60.1709 22.8177 60.1268 22.764 60.0798 22.7127L37.9077 0.540622C37.8564 0.493617 37.8027 0.44949 37.7467 0.40841H37.6128L36.4275 0.000976562H9.07238C6.66623 0.000976562 4.35864 0.956814 2.65724 2.65822C0.955837 4.35962 0 6.66721 0 9.07336V60.9286C0 63.3347 0.955838 65.6423 2.65724 67.3437C4.35864 69.0451 6.66623 70.001 9.07238 70.001H51.3618C53.768 70.001 56.0756 69.0451 57.777 67.3437C59.4784 65.6423 60.4342 63.3347 60.4342 60.9286ZM54.7669 22.2247L38.2105 5.66829V22.2247H54.7669ZM34.8816 23.8891V3.32996H9.07238C7.54913 3.32996 6.08828 3.93506 5.01118 5.01216C3.93409 6.08926 3.32898 7.55011 3.32898 9.07336V60.9286C3.32898 62.4518 3.93408 63.9127 5.01118 64.9898C6.08828 66.0669 7.54914 66.672 9.07238 66.672H51.3618C52.8851 66.672 54.3459 66.0669 55.423 64.9898C56.5001 63.9127 57.1052 62.4518 57.1052 60.9286V25.5536H36.5461C36.1046 25.5536 35.6812 25.3783 35.3691 25.0661C35.0569 24.754 34.8816 24.3306 34.8816 23.8891Z" fill="#32B561"/>
    <path fill-rule="evenodd" clip-rule="evenodd" d="M60.4342 60.9286V23.7978C60.4098 23.6345 60.3711 23.4736 60.3184 23.317L60.212 23.0006V22.8737C60.1709 22.8177 60.1268 22.764 60.0798 22.7127L37.9077 0.540622C37.8564 0.493617 37.8027 0.44949 37.7467 0.40841H37.6128L36.4275 0.000976562H9.07238C6.66623 0.000976562 4.35864 0.956814 2.65724 2.65822C0.955837 4.35962 0 6.66721 0 9.07336V60.9286C0 63.3347 0.955838 65.6423 2.65724 67.3437C4.35864 69.0451 6.66623 70.001 9.07238 70.001H51.3618C53.768 70.001 56.0756 69.0451 57.777 67.3437C59.4784 65.6423 60.4342 63.3347 60.4342 60.9286ZM54.7669 22.2247L38.2105 5.66829V22.2247H54.7669ZM34.8816 23.8891V3.32996H9.07238C7.54913 3.32996 6.08828 3.93506 5.01118 5.01216C3.93409 6.08926 3.32898 7.55011 3.32898 9.07336V60.9286C3.32898 62.4518 3.93408 63.9127 5.01118 64.9898C6.08828 66.0669 7.54914 66.672 9.07238 66.672H51.3618C52.8851 66.672 54.3459 66.0669 55.423 64.9898C56.5001 63.9127 57.1052 62.4518 57.1052 60.9286V25.5536H36.5461C36.1046 25.5536 35.6812 25.3783 35.3691 25.0661C35.0569 24.754 34.8816 24.3306 34.8816 23.8891Z" fill="url(#paint0_linear_1525_228)"/>
    <defs>
        <linearGradient id="paint0_linear_1525_228" x1="2.1875" y1="68.6885" x2="48.5625" y2="21.4385" gradientUnits="userSpaceOnUse">
            <stop offset="0.15" stop-color="#6F2C91"/>
            <stop offset="0.721" stop-color="#32B561"/>
        </linearGradient>
    </defs>
</svg>
