<svg width="77" height="70" viewBox="0 0 77 70" fill="none" xmlns="http://www.w3.org/2000/svg">
    <path d="M16.9879 53.0131C16.3346 52.3598 16.3353 51.3021 16.9874 50.6506L50.6502 16.9889C51.3033 16.3359 52.3602 16.3359 53.0133 16.9889C53.6662 17.6419 53.6658 18.6988 53.0149 19.3503L19.351 53.0131C19.0237 53.3403 18.5993 53.5029 18.1694 53.5029C17.7396 53.5029 17.3152 53.3403 16.9879 53.0131Z" fill="#32B561"/>
    <path d="M16.9879 53.0131C16.3346 52.3598 16.3353 51.3021 16.9874 50.6506L50.6502 16.9889C51.3033 16.3359 52.3602 16.3359 53.0133 16.9889C53.6662 17.6419 53.6658 18.6988 53.0149 19.3503L19.351 53.0131C19.0237 53.3403 18.5993 53.5029 18.1694 53.5029C17.7396 53.5029 17.3152 53.3403 16.9879 53.0131Z" fill="url(#paint0_linear_1525_935)"/>
    <path fill-rule="evenodd" clip-rule="evenodd" d="M31.8752 23.5907C31.8752 28.1572 28.1562 31.8762 23.5898 31.8762C19.0233 31.8762 15.3043 28.1572 15.3043 23.5907C15.3043 19.0243 19.0233 15.3053 23.5898 15.3053C28.1562 15.3053 31.8752 19.0243 31.8752 23.5907ZM28.5326 23.5907C28.5326 20.8631 26.3174 18.6479 23.5898 18.6479C20.8621 18.6479 18.6469 20.8631 18.6469 23.5907C18.6469 26.3184 20.8621 28.5336 23.5898 28.5336C26.3174 28.5336 28.5326 26.3184 28.5326 23.5907Z" fill="#32B561"/>
    <path fill-rule="evenodd" clip-rule="evenodd" d="M31.8752 23.5907C31.8752 28.1572 28.1562 31.8762 23.5898 31.8762C19.0233 31.8762 15.3043 28.1572 15.3043 23.5907C15.3043 19.0243 19.0233 15.3053 23.5898 15.3053C28.1562 15.3053 31.8752 19.0243 31.8752 23.5907ZM28.5326 23.5907C28.5326 20.8631 26.3174 18.6479 23.5898 18.6479C20.8621 18.6479 18.6469 20.8631 18.6469 23.5907C18.6469 26.3184 20.8621 28.5336 23.5898 28.5336C26.3174 28.5336 28.5326 26.3184 28.5326 23.5907Z" fill="url(#paint1_linear_1525_935)"/>
    <path fill-rule="evenodd" clip-rule="evenodd" d="M38.1248 46.4112C38.1248 41.8446 41.8428 38.1258 46.4103 38.1258C50.9778 38.1258 54.6957 41.8446 54.6957 46.4112C54.6957 50.9779 50.9778 54.6967 46.4103 54.6967C41.8428 54.6967 38.1248 50.9779 38.1248 46.4112ZM41.4674 46.4112C41.4674 49.1389 43.6826 51.3541 46.4103 51.3541C49.1379 51.3541 51.3531 49.1389 51.3531 46.4112C51.3531 43.6836 49.1379 41.4684 46.4103 41.4684C43.6826 41.4684 41.4674 43.6836 41.4674 46.4112Z" fill="#32B561"/>
    <path fill-rule="evenodd" clip-rule="evenodd" d="M38.1248 46.4112C38.1248 41.8446 41.8428 38.1258 46.4103 38.1258C50.9778 38.1258 54.6957 41.8446 54.6957 46.4112C54.6957 50.9779 50.9778 54.6967 46.4103 54.6967C41.8428 54.6967 38.1248 50.9779 38.1248 46.4112ZM41.4674 46.4112C41.4674 49.1389 43.6826 51.3541 46.4103 51.3541C49.1379 51.3541 51.3531 49.1389 51.3531 46.4112C51.3531 43.6836 49.1379 41.4684 46.4103 41.4684C43.6826 41.4684 41.4674 43.6836 41.4674 46.4112Z" fill="url(#paint2_linear_1525_935)"/>
    <path fill-rule="evenodd" clip-rule="evenodd" d="M0 35.001C0 15.7033 15.7023 0.000976562 35 0.000976562C54.2977 0.000976562 70 15.7032 70 35.001C70 54.2987 54.2977 70.001 35 70.001C15.7023 70.001 0 54.2987 0 35.001ZM3.34258 35.001C3.34258 52.4587 17.5422 66.6584 35 66.6584C52.4578 66.6584 66.6574 52.4587 66.6574 35.001C66.6574 17.5432 52.4578 3.34356 35 3.34356C17.5422 3.34356 3.34258 17.5432 3.34258 35.001Z" fill="#32B561"/>
    <path fill-rule="evenodd" clip-rule="evenodd" d="M0 35.001C0 15.7033 15.7023 0.000976562 35 0.000976562C54.2977 0.000976562 70 15.7032 70 35.001C70 54.2987 54.2977 70.001 35 70.001C15.7023 70.001 0 54.2987 0 35.001ZM3.34258 35.001C3.34258 52.4587 17.5422 66.6584 35 66.6584C52.4578 66.6584 66.6574 52.4587 66.6574 35.001C66.6574 17.5432 52.4578 3.34356 35 3.34356C17.5422 3.34356 3.34258 17.5432 3.34258 35.001Z" fill="url(#paint3_linear_1525_935)"/>
    <defs>
        <linearGradient id="paint0_linear_1525_935" x1="2.53374" y1="68.6885" x2="48.2878" y2="14.6923" gradientUnits="userSpaceOnUse">
            <stop offset="0.15" stop-color="#6F2C91"/>
            <stop offset="0.721" stop-color="#32B561"/>
        </linearGradient>
        <linearGradient id="paint1_linear_1525_935" x1="2.53374" y1="68.6885" x2="48.2878" y2="14.6923" gradientUnits="userSpaceOnUse">
            <stop offset="0.15" stop-color="#6F2C91"/>
            <stop offset="0.721" stop-color="#32B561"/>
        </linearGradient>
        <linearGradient id="paint2_linear_1525_935" x1="2.53374" y1="68.6885" x2="48.2878" y2="14.6923" gradientUnits="userSpaceOnUse">
            <stop offset="0.15" stop-color="#6F2C91"/>
            <stop offset="0.721" stop-color="#32B561"/>
        </linearGradient>
        <linearGradient id="paint3_linear_1525_935" x1="2.53374" y1="68.6885" x2="48.2878" y2="14.6923" gradientUnits="userSpaceOnUse">
            <stop offset="0.15" stop-color="#6F2C91"/>
            <stop offset="0.721" stop-color="#32B561"/>
        </linearGradient>
    </defs>
</svg>
