<svg width="77" height="70" viewBox="0 0 77 70" fill="none" xmlns="http://www.w3.org/2000/svg">
    <path d="M52.1395 47.192L50.5497 46.7375C49.766 46.5403 48.9678 46.283 48.197 45.9784C46.382 45.3279 45.1825 43.5767 45.2323 41.6281L45.2387 41.3739L45.4135 41.1891C52.4985 33.7052 52.357 27.0959 52.2071 20.0983L52.2069 17.1568C52.074 7.67368 44.5344 0.133829 35.042 0.000976562C25.5251 0.0940393 17.9529 7.63389 17.819 17.1661V20.0842C17.6693 27.0703 17.5281 33.6559 24.6137 41.1904L24.7896 41.3777L24.7936 41.6345C24.825 43.6452 23.565 45.4116 21.6558 46.0368C21.0152 46.2872 20.3547 46.4742 19.7156 46.6548L17.8351 47.1918C8.96984 50.1437 0 58.2592 0 68.0677C0 69.1055 0.844418 69.9501 1.88248 69.9501C2.92054 69.9501 3.76495 69.1057 3.76495 68.0677C3.76495 60.1392 11.6236 53.2393 19.0222 50.7688C19.3873 50.6329 19.7587 50.5369 20.1517 50.4353L20.4269 50.3643C21.328 50.1698 22.2279 49.9198 23.1015 49.6213C25.2616 48.8169 26.9749 47.1033 27.7855 44.9264L28.0433 44.2345L28.7038 44.5646C29.3532 44.8895 30.0332 45.1678 30.7251 45.3926L31.7543 45.7271L28.4434 49.038C27.8737 49.6125 27.736 50.4837 28.1005 51.2078L30.5849 55.5888L27.9865 67.6978C27.887 68.195 27.9891 68.7103 28.2754 69.1398C28.5616 69.5693 28.9982 69.8617 29.5044 69.963C29.6307 69.9879 29.7591 70.001 29.8862 70.001C30.8027 70.001 31.5987 69.3471 31.7788 68.4465L34.3074 55.8037C34.2993 55.643 34.3006 55.4812 34.3112 55.3207C34.3059 55.0353 34.2347 54.7511 34.1045 54.4966L32.1847 50.6287L34.9748 47.803L37.7627 50.6265L35.8634 54.5099C35.7279 54.7606 35.6503 55.0426 35.6384 55.3276C35.6488 55.4856 35.6499 55.6452 35.6419 55.8033L38.1703 68.4463C38.3478 69.3168 39.1233 69.9501 40.0137 69.9501L40.5113 69.9497C40.9837 69.8513 41.3937 69.5803 41.6705 69.1824C41.9578 68.7697 42.067 68.2699 41.9784 67.775C41.9737 67.7491 41.9691 67.7253 41.964 67.702L39.5492 55.6037L41.7883 51.0988C42.1641 50.3652 42.0281 49.4878 41.4532 48.9084L38.1374 45.5924L39.1785 45.2635C39.8764 45.0429 40.5595 44.7582 41.2085 44.4176L41.8736 44.0683L42.1375 44.7717C42.9532 46.9451 44.6675 48.6593 46.8409 49.475C47.779 49.8521 48.7373 50.1689 49.7033 50.4218C49.8388 50.4593 49.9654 50.4925 50.0908 50.5254C50.4195 50.6114 50.7592 50.7003 51.08 50.8197C58.4045 53.2654 66.1844 60.1388 66.1844 68.0674C66.1844 69.1053 67.0288 69.9499 68.0669 69.9499C69.105 69.9499 69.9494 69.1055 69.9494 68.0674C69.9494 58.2647 60.9924 50.1479 52.1395 47.192ZM41.884 39.3648C40.0367 41.2249 37.573 42.2501 34.9492 42.2501C32.3505 42.2501 29.9039 41.2415 28.0599 39.4101L28.0112 39.3614C21.3032 32.6795 21.4334 26.8711 21.5842 20.1456L21.5839 17.1568C21.5839 9.77301 27.591 3.76593 34.9748 3.76593C42.3586 3.76593 48.3657 9.77301 48.3657 17.1568L48.3661 20.8318C48.3736 27.2909 48.3798 32.8692 41.884 39.3648Z" fill="#32B561"/>
    <path d="M52.1395 47.192L50.5497 46.7375C49.766 46.5403 48.9678 46.283 48.197 45.9784C46.382 45.3279 45.1825 43.5767 45.2323 41.6281L45.2387 41.3739L45.4135 41.1891C52.4985 33.7052 52.357 27.0959 52.2071 20.0983L52.2069 17.1568C52.074 7.67368 44.5344 0.133829 35.042 0.000976562C25.5251 0.0940393 17.9529 7.63389 17.819 17.1661V20.0842C17.6693 27.0703 17.5281 33.6559 24.6137 41.1904L24.7896 41.3777L24.7936 41.6345C24.825 43.6452 23.565 45.4116 21.6558 46.0368C21.0152 46.2872 20.3547 46.4742 19.7156 46.6548L17.8351 47.1918C8.96984 50.1437 0 58.2592 0 68.0677C0 69.1055 0.844418 69.9501 1.88248 69.9501C2.92054 69.9501 3.76495 69.1057 3.76495 68.0677C3.76495 60.1392 11.6236 53.2393 19.0222 50.7688C19.3873 50.6329 19.7587 50.5369 20.1517 50.4353L20.4269 50.3643C21.328 50.1698 22.2279 49.9198 23.1015 49.6213C25.2616 48.8169 26.9749 47.1033 27.7855 44.9264L28.0433 44.2345L28.7038 44.5646C29.3532 44.8895 30.0332 45.1678 30.7251 45.3926L31.7543 45.7271L28.4434 49.038C27.8737 49.6125 27.736 50.4837 28.1005 51.2078L30.5849 55.5888L27.9865 67.6978C27.887 68.195 27.9891 68.7103 28.2754 69.1398C28.5616 69.5693 28.9982 69.8617 29.5044 69.963C29.6307 69.9879 29.7591 70.001 29.8862 70.001C30.8027 70.001 31.5987 69.3471 31.7788 68.4465L34.3074 55.8037C34.2993 55.643 34.3006 55.4812 34.3112 55.3207C34.3059 55.0353 34.2347 54.7511 34.1045 54.4966L32.1847 50.6287L34.9748 47.803L37.7627 50.6265L35.8634 54.5099C35.7279 54.7606 35.6503 55.0426 35.6384 55.3276C35.6488 55.4856 35.6499 55.6452 35.6419 55.8033L38.1703 68.4463C38.3478 69.3168 39.1233 69.9501 40.0137 69.9501L40.5113 69.9497C40.9837 69.8513 41.3937 69.5803 41.6705 69.1824C41.9578 68.7697 42.067 68.2699 41.9784 67.775C41.9737 67.7491 41.9691 67.7253 41.964 67.702L39.5492 55.6037L41.7883 51.0988C42.1641 50.3652 42.0281 49.4878 41.4532 48.9084L38.1374 45.5924L39.1785 45.2635C39.8764 45.0429 40.5595 44.7582 41.2085 44.4176L41.8736 44.0683L42.1375 44.7717C42.9532 46.9451 44.6675 48.6593 46.8409 49.475C47.779 49.8521 48.7373 50.1689 49.7033 50.4218C49.8388 50.4593 49.9654 50.4925 50.0908 50.5254C50.4195 50.6114 50.7592 50.7003 51.08 50.8197C58.4045 53.2654 66.1844 60.1388 66.1844 68.0674C66.1844 69.1053 67.0288 69.9499 68.0669 69.9499C69.105 69.9499 69.9494 69.1055 69.9494 68.0674C69.9494 58.2647 60.9924 50.1479 52.1395 47.192ZM41.884 39.3648C40.0367 41.2249 37.573 42.2501 34.9492 42.2501C32.3505 42.2501 29.9039 41.2415 28.0599 39.4101L28.0112 39.3614C21.3032 32.6795 21.4334 26.8711 21.5842 20.1456L21.5839 17.1568C21.5839 9.77301 27.591 3.76593 34.9748 3.76593C42.3586 3.76593 48.3657 9.77301 48.3657 17.1568L48.3661 20.8318C48.3736 27.2909 48.3798 32.8692 41.884 39.3648Z" fill="url(#paint0_linear_1525_270)"/>
    <defs>
        <linearGradient id="paint0_linear_1525_270" x1="2.53191" y1="68.6885" x2="48.2914" y2="14.725" gradientUnits="userSpaceOnUse">
            <stop offset="0.15" stop-color="#6F2C91"/>
            <stop offset="0.721" stop-color="#32B561"/>
        </linearGradient>
    </defs>
</svg>
