<svg width="77" height="70" viewBox="0 0 77 70" fill="none" xmlns="http://www.w3.org/2000/svg">
    <path fill-rule="evenodd" clip-rule="evenodd" d="M69.9554 21.9332C71.0737 24.8712 70.1658 28.0202 69.253 31.0774C68.6935 32.6512 68.3306 34.2881 68.1726 35.9509L68.1677 36.0033L68.1696 36.0559C68.2295 37.6506 68.4838 39.2321 68.927 40.7651C69.6897 43.9007 70.4473 47.1311 69.0956 50.1598C67.7445 53.1662 64.8244 54.747 61.965 56.251C60.519 56.9337 59.159 57.7854 57.9135 58.7883L57.8686 58.8245L57.8294 58.8667C56.6927 60.0914 55.7103 61.4508 54.9043 62.9144C53.2304 65.6261 51.4793 68.3679 48.5404 69.4875C47.6023 69.8373 46.6078 70.0112 45.6068 70.0005C43.5016 69.897 41.4225 69.49 39.4336 68.7922C37.8542 68.229 36.211 67.8639 34.5417 67.7054L34.4835 67.6999L34.4251 67.7029C32.8386 67.7856 31.2656 68.0389 29.7333 68.4584C26.5944 69.2218 23.3423 69.9807 20.3331 68.6284C17.3271 67.2776 15.745 64.3566 14.2639 61.5005C13.5854 60.0555 12.7316 58.6994 11.7218 57.4629L11.6916 57.426L11.6572 57.3929C10.4636 56.2444 9.12918 55.2519 7.68595 54.439C4.97265 52.7642 2.22852 51.0125 1.10895 48.0713C-0.0128819 45.1241 0.80328 41.952 1.76852 38.9505C2.31044 37.3558 2.65296 35.7002 2.78825 34.0214L2.79202 33.9746L2.79026 33.9277C2.73044 32.3329 2.47609 30.7515 2.03288 29.2185C1.27331 26.0957 0.518817 22.879 1.8478 19.8611C3.46401 17.106 5.95815 14.9723 8.9313 13.8025L8.95604 13.7927L8.98007 13.7814C10.4317 13.095 11.7928 12.2315 13.0323 11.2106L13.0685 11.1808L13.101 11.1469C14.2431 9.95462 15.2353 8.62728 16.0555 7.19436C17.7253 4.38342 19.4804 1.6365 22.4406 0.516925C25.3984 -0.601712 28.5119 0.305971 31.5577 1.2787C33.1336 1.842 34.7738 2.20589 36.4401 2.36188L36.4968 2.36719L36.5536 2.36437C38.1435 2.28567 39.7191 2.025 41.2497 1.58749L41.3185 1.57121C44.4269 0.835916 47.6368 0.103432 50.6115 1.4226C53.3651 3.02034 55.5057 5.49324 56.6922 8.44828L56.7006 8.46908L56.7101 8.48937C57.3897 9.93988 58.2458 11.3009 59.259 12.5416L59.2913 12.5812L59.3285 12.6163C60.5479 13.7697 61.9104 14.7617 63.3824 15.568C66.0944 17.242 68.8364 18.9934 69.9554 21.9332ZM9.58567 51.366C11.3152 52.3444 12.9145 53.5366 14.3461 54.9146C15.5657 56.3817 16.5967 57.996 17.4149 59.7196C18.2616 61.9454 19.754 63.8679 21.701 65.2401L21.827 65.3288L21.977 65.3642C24.2962 65.91 26.7254 65.7502 28.9528 64.9058C30.6935 64.3988 32.4875 64.0968 34.2983 64.0062H34.5835C36.5592 64.1533 38.5075 64.5562 40.3795 65.2048C42.4897 66.1422 44.8266 66.4483 47.1076 66.0859L47.1846 66.0737L47.2577 66.0467C48.2443 65.6832 49.0568 64.9039 49.7568 64.0308C50.4566 63.1578 51.1163 62.096 51.762 61.0566L51.8461 60.9212L51.8541 60.907C52.833 59.1767 54.0258 57.5767 55.4044 56.1447C56.8691 54.9111 58.4832 53.8666 60.2086 53.0358C62.4388 52.1954 64.3633 50.7009 65.7298 48.7476L65.8162 48.624L65.8514 48.4774C66.409 46.1569 66.249 43.7221 65.3928 41.4949C64.8555 39.6751 64.5539 37.7939 64.4953 35.8973C64.6431 33.9257 65.0457 31.9815 65.6929 30.1132C66.6303 28.0029 66.9365 25.666 66.574 23.385L66.5611 23.3035L66.5316 23.2263C66.1542 22.237 65.3676 21.4208 64.4844 20.7145C63.6018 20.0088 62.5307 19.3433 61.479 18.6899L61.4094 18.6465L61.3951 18.6385C59.6656 17.6601 58.0662 16.4678 56.6347 15.0899C55.4151 13.6227 54.3841 12.0085 53.5659 10.2849C52.7192 8.05907 51.2268 6.13663 49.2798 4.76443L49.1552 4.67665L49.0071 4.64111C46.6869 4.08461 44.2532 4.23775 42.0214 5.0804C40.1981 5.65039 38.3033 5.95919 36.3935 5.99763C34.4027 5.83006 32.4418 5.40642 30.5594 4.73719C28.4546 3.82227 26.1293 3.53819 23.8658 3.91981L23.7881 3.93291L23.7144 3.961C22.7252 4.33848 21.9089 5.12499 21.2027 6.00823C20.4969 6.89093 19.8313 7.96213 19.1779 9.01383L19.1357 9.08165L19.1285 9.09423C18.1467 10.8107 16.9537 12.3973 15.5774 13.8171C14.1121 15.0514 12.4973 16.0964 10.771 16.9275C8.54604 17.7744 6.62436 19.2665 5.25258 21.2129L5.16481 21.3374L5.12927 21.4856C4.57295 23.805 4.7258 26.2378 5.5677 28.469C6.12704 30.2964 6.43581 32.1912 6.48558 34.1015C6.31788 36.0915 5.89431 38.0516 5.22534 39.9333C4.31042 42.038 4.02635 44.3634 4.40796 46.6269L4.42106 46.7046L4.44916 46.7782C4.82663 47.7674 5.61314 48.5837 6.49639 49.29C7.37913 49.9958 8.45038 50.6614 9.50211 51.3149L9.57143 51.3579L9.58567 51.366ZM32.1716 44.0166C31.961 44.1121 31.7338 44.1655 31.5028 44.1739C31.2742 44.1756 31.0473 44.1325 30.8351 44.0472C30.6205 43.9608 30.4251 43.8329 30.2601 43.6706L30.2593 43.6699L22.7361 36.293C22.5666 36.1273 22.4314 35.9298 22.3382 35.7119C22.245 35.4939 22.1957 35.2597 22.193 35.0227C22.1903 34.7856 22.2343 34.5504 22.3225 34.3303C22.4107 34.1103 22.5414 33.9098 22.7071 33.7403C22.8728 33.5708 23.0703 33.4356 23.2883 33.3424C23.5063 33.2492 23.7404 33.1998 23.9775 33.1971C24.2145 33.1944 24.4498 33.2384 24.6698 33.3267C24.8898 33.4149 25.0904 33.5457 25.2598 33.7113L31.5338 39.8479L45.7484 26.3082L45.7617 26.2942C45.9315 26.1159 46.1357 25.9741 46.362 25.8772C46.5883 25.7803 46.8319 25.7304 47.0781 25.7305C47.3242 25.7307 47.5678 25.7808 47.794 25.878C48.0201 25.9752 48.2242 26.1173 48.3938 26.2957C48.5633 26.4741 48.6949 26.6852 48.7804 26.916C48.8659 27.1469 48.9036 27.3927 48.8912 27.6385C48.8788 27.8843 48.8165 28.1251 48.7082 28.3462C48.5999 28.5672 48.4478 28.7639 48.2612 28.9244L48.2468 28.9367L32.7527 43.5934L32.7358 43.6114C32.5763 43.7823 32.3845 43.92 32.1716 44.0166Z" fill="#32B561"/>
    <path fill-rule="evenodd" clip-rule="evenodd" d="M69.9554 21.9332C71.0737 24.8712 70.1658 28.0202 69.253 31.0774C68.6935 32.6512 68.3306 34.2881 68.1726 35.9509L68.1677 36.0033L68.1696 36.0559C68.2295 37.6506 68.4838 39.2321 68.927 40.7651C69.6897 43.9007 70.4473 47.1311 69.0956 50.1598C67.7445 53.1662 64.8244 54.747 61.965 56.251C60.519 56.9337 59.159 57.7854 57.9135 58.7883L57.8686 58.8245L57.8294 58.8667C56.6927 60.0914 55.7103 61.4508 54.9043 62.9144C53.2304 65.6261 51.4793 68.3679 48.5404 69.4875C47.6023 69.8373 46.6078 70.0112 45.6068 70.0005C43.5016 69.897 41.4225 69.49 39.4336 68.7922C37.8542 68.229 36.211 67.8639 34.5417 67.7054L34.4835 67.6999L34.4251 67.7029C32.8386 67.7856 31.2656 68.0389 29.7333 68.4584C26.5944 69.2218 23.3423 69.9807 20.3331 68.6284C17.3271 67.2776 15.745 64.3566 14.2639 61.5005C13.5854 60.0555 12.7316 58.6994 11.7218 57.4629L11.6916 57.426L11.6572 57.3929C10.4636 56.2444 9.12918 55.2519 7.68595 54.439C4.97265 52.7642 2.22852 51.0125 1.10895 48.0713C-0.0128819 45.1241 0.80328 41.952 1.76852 38.9505C2.31044 37.3558 2.65296 35.7002 2.78825 34.0214L2.79202 33.9746L2.79026 33.9277C2.73044 32.3329 2.47609 30.7515 2.03288 29.2185C1.27331 26.0957 0.518817 22.879 1.8478 19.8611C3.46401 17.106 5.95815 14.9723 8.9313 13.8025L8.95604 13.7927L8.98007 13.7814C10.4317 13.095 11.7928 12.2315 13.0323 11.2106L13.0685 11.1808L13.101 11.1469C14.2431 9.95462 15.2353 8.62728 16.0555 7.19436C17.7253 4.38342 19.4804 1.6365 22.4406 0.516925C25.3984 -0.601712 28.5119 0.305971 31.5577 1.2787C33.1336 1.842 34.7738 2.20589 36.4401 2.36188L36.4968 2.36719L36.5536 2.36437C38.1435 2.28567 39.7191 2.025 41.2497 1.58749L41.3185 1.57121C44.4269 0.835916 47.6368 0.103432 50.6115 1.4226C53.3651 3.02034 55.5057 5.49324 56.6922 8.44828L56.7006 8.46908L56.7101 8.48937C57.3897 9.93988 58.2458 11.3009 59.259 12.5416L59.2913 12.5812L59.3285 12.6163C60.5479 13.7697 61.9104 14.7617 63.3824 15.568C66.0944 17.242 68.8364 18.9934 69.9554 21.9332ZM9.58567 51.366C11.3152 52.3444 12.9145 53.5366 14.3461 54.9146C15.5657 56.3817 16.5967 57.996 17.4149 59.7196C18.2616 61.9454 19.754 63.8679 21.701 65.2401L21.827 65.3288L21.977 65.3642C24.2962 65.91 26.7254 65.7502 28.9528 64.9058C30.6935 64.3988 32.4875 64.0968 34.2983 64.0062H34.5835C36.5592 64.1533 38.5075 64.5562 40.3795 65.2048C42.4897 66.1422 44.8266 66.4483 47.1076 66.0859L47.1846 66.0737L47.2577 66.0467C48.2443 65.6832 49.0568 64.9039 49.7568 64.0308C50.4566 63.1578 51.1163 62.096 51.762 61.0566L51.8461 60.9212L51.8541 60.907C52.833 59.1767 54.0258 57.5767 55.4044 56.1447C56.8691 54.9111 58.4832 53.8666 60.2086 53.0358C62.4388 52.1954 64.3633 50.7009 65.7298 48.7476L65.8162 48.624L65.8514 48.4774C66.409 46.1569 66.249 43.7221 65.3928 41.4949C64.8555 39.6751 64.5539 37.7939 64.4953 35.8973C64.6431 33.9257 65.0457 31.9815 65.6929 30.1132C66.6303 28.0029 66.9365 25.666 66.574 23.385L66.5611 23.3035L66.5316 23.2263C66.1542 22.237 65.3676 21.4208 64.4844 20.7145C63.6018 20.0088 62.5307 19.3433 61.479 18.6899L61.4094 18.6465L61.3951 18.6385C59.6656 17.6601 58.0662 16.4678 56.6347 15.0899C55.4151 13.6227 54.3841 12.0085 53.5659 10.2849C52.7192 8.05907 51.2268 6.13663 49.2798 4.76443L49.1552 4.67665L49.0071 4.64111C46.6869 4.08461 44.2532 4.23775 42.0214 5.0804C40.1981 5.65039 38.3033 5.95919 36.3935 5.99763C34.4027 5.83006 32.4418 5.40642 30.5594 4.73719C28.4546 3.82227 26.1293 3.53819 23.8658 3.91981L23.7881 3.93291L23.7144 3.961C22.7252 4.33848 21.9089 5.12499 21.2027 6.00823C20.4969 6.89093 19.8313 7.96213 19.1779 9.01383L19.1357 9.08165L19.1285 9.09423C18.1467 10.8107 16.9537 12.3973 15.5774 13.8171C14.1121 15.0514 12.4973 16.0964 10.771 16.9275C8.54604 17.7744 6.62436 19.2665 5.25258 21.2129L5.16481 21.3374L5.12927 21.4856C4.57295 23.805 4.7258 26.2378 5.5677 28.469C6.12704 30.2964 6.43581 32.1912 6.48558 34.1015C6.31788 36.0915 5.89431 38.0516 5.22534 39.9333C4.31042 42.038 4.02635 44.3634 4.40796 46.6269L4.42106 46.7046L4.44916 46.7782C4.82663 47.7674 5.61314 48.5837 6.49639 49.29C7.37913 49.9958 8.45038 50.6614 9.50211 51.3149L9.57143 51.3579L9.58567 51.366ZM32.1716 44.0166C31.961 44.1121 31.7338 44.1655 31.5028 44.1739C31.2742 44.1756 31.0473 44.1325 30.8351 44.0472C30.6205 43.9608 30.4251 43.8329 30.2601 43.6706L30.2593 43.6699L22.7361 36.293C22.5666 36.1273 22.4314 35.9298 22.3382 35.7119C22.245 35.4939 22.1957 35.2597 22.193 35.0227C22.1903 34.7856 22.2343 34.5504 22.3225 34.3303C22.4107 34.1103 22.5414 33.9098 22.7071 33.7403C22.8728 33.5708 23.0703 33.4356 23.2883 33.3424C23.5063 33.2492 23.7404 33.1998 23.9775 33.1971C24.2145 33.1944 24.4498 33.2384 24.6698 33.3267C24.8898 33.4149 25.0904 33.5457 25.2598 33.7113L31.5338 39.8479L45.7484 26.3082L45.7617 26.2942C45.9315 26.1159 46.1357 25.9741 46.362 25.8772C46.5883 25.7803 46.8319 25.7304 47.0781 25.7305C47.3242 25.7307 47.5678 25.7808 47.794 25.878C48.0201 25.9752 48.2242 26.1173 48.3938 26.2957C48.5633 26.4741 48.6949 26.6852 48.7804 26.916C48.8659 27.1469 48.9036 27.3927 48.8912 27.6385C48.8788 27.8843 48.8165 28.1251 48.7082 28.3462C48.5999 28.5672 48.4478 28.7639 48.2612 28.9244L48.2468 28.9367L32.7527 43.5934L32.7358 43.6114C32.5763 43.7823 32.3845 43.92 32.1716 44.0166Z" fill="url(#paint0_linear_1525_38)"/>
    <defs>
        <linearGradient id="paint0_linear_1525_38" x1="2.55087" y1="68.6885" x2="48.2534" y2="14.3886" gradientUnits="userSpaceOnUse">
            <stop offset="0.15" stop-color="#6F2C91"/>
            <stop offset="0.721" stop-color="#32B561"/>
        </linearGradient>
    </defs>
</svg>
