<svg width="15" height="13" viewBox="0 0 15 13" fill="none" xmlns="http://www.w3.org/2000/svg">
    <path d="M1.67267 5.76006C1.26402 5.38855 0.631567 5.41867 0.26006 5.82733C-0.111447 6.23598 -0.0813304 6.86843 0.327327 7.23994L1.67267 5.76006ZM6.5 11.5L5.82733 12.2399C6.03869 12.4321 6.32213 12.5247 6.60617 12.4943C6.8902 12.464 7.1477 12.3137 7.31373 12.0812L6.5 11.5ZM14.8137 1.58124C15.1347 1.13183 15.0307 0.507276 14.5812 0.186267C14.1318 -0.134742 13.5073 -0.0306507 13.1863 0.418762L14.8137 1.58124ZM0.327327 7.23994L5.82733 12.2399L7.17267 10.7601L1.67267 5.76006L0.327327 7.23994ZM7.31373 12.0812L14.8137 1.58124L13.1863 0.418762L5.68627 10.9188L7.31373 12.0812Z" fill="#2AA549"/>
</svg>
