<svg width="31" height="43" viewBox="0 0 31 43" fill="none" xmlns="http://www.w3.org/2000/svg">
    <path d="M9.20992 15.6849C9.20992 12.2227 11.8913 9.41699 15.1974 9.41699C18.5041 9.41699 21.1848 12.2227 21.1848 15.6849C21.1848 19.1458 18.5041 21.9522 15.1974 21.9522C11.8913 21.9522 9.20992 19.1458 9.20992 15.6849Z" fill="#D9DEEA"/>
    <path fill-rule="evenodd" clip-rule="evenodd" d="M0 16.1588C0 7.24882 6.92439 0 15.4358 0C23.9474 0 30.8717 7.24871 30.8718 16.1588C30.8718 30.4865 16.9819 41.7626 16.3905 42.2359L15.436 43L14.4808 42.2359C13.8894 41.7627 0 30.4865 0 16.1588ZM3.14503 16.1588C3.14503 26.8394 12.3925 36.0516 15.4347 38.7921C18.4756 36.0473 27.7268 26.8165 27.7267 16.1588C27.7267 9.06415 22.2126 3.29233 15.4358 3.29233C8.65789 3.29233 3.14503 9.06404 3.14503 16.1588Z" fill="#D9DEEA"/>
</svg>
