<svg width="41" height="33" viewBox="0 0 41 33" fill="none" xmlns="http://www.w3.org/2000/svg">
    <path d="M35.4091 0H5.59091C2.50333 0 0 2.46263 0 5.5V27.5C0 30.5374 2.50333 33 5.59091 33H35.4091C38.4967 33 41 30.5374 41 27.5V5.5C41 2.46263 38.4967 0 35.4091 0ZM35.4091 3.66667C35.6229 3.66667 35.8251 3.70929 36.0162 3.77438L20.5 15.9853L4.98383 3.77438C5.17532 3.70929 5.37706 3.66667 5.59091 3.66667H35.4091ZM35.4091 29.3333H5.59091C4.56125 29.3333 3.72727 28.5129 3.72727 27.5V7.48138L19.3357 19.7647C19.6758 20.0328 20.0881 20.1667 20.5 20.1667C20.9119 20.1667 21.3242 20.0328 21.6643 19.7647L37.2727 7.48138V27.5C37.2727 28.5129 36.4388 29.3333 35.4091 29.3333Z" fill="#D9DEEA"/>
</svg>
