<svg width="40" height="40" viewBox="0 0 40 40" fill="none" xmlns="http://www.w3.org/2000/svg">
    <path d="M29.3141 40C27.7577 39.9885 26.2082 39.7931 24.6976 39.418C19.4812 38.1594 14.1096 34.9667 9.57478 30.4278C5.03991 25.889 1.84322 20.5164 0.584635 15.305C-0.740606 9.82292 0.204574 5.13284 3.24308 2.09434L4.11065 1.22676C4.89779 0.441196 5.96445 0 7.07652 0C8.1886 0 9.25525 0.441196 10.0424 1.22676L15.028 6.21134C15.814 6.99823 16.2556 8.06497 16.2556 9.17721C16.2556 10.2895 15.814 11.3562 15.028 12.1431L12.083 15.0871C13.4948 17.5644 15.415 20.0438 17.6844 22.3132C19.9538 24.5826 22.4352 26.5038 24.9116 27.9156L27.8555 24.9707C28.245 24.5811 28.7073 24.272 29.2162 24.0612C29.7251 23.8504 30.2706 23.7418 30.8214 23.7418C31.3722 23.7418 31.9177 23.8504 32.4266 24.0612C32.9355 24.272 33.3978 24.5811 33.7873 24.9707L38.7719 29.9552C39.5581 30.7418 39.9998 31.8085 39.9998 32.9206C39.9998 34.0328 39.5581 35.0994 38.7719 35.886L37.9033 36.7536C35.7612 38.8996 32.7963 40 29.3141 40ZM7.07652 2.98281C6.91767 2.98202 6.76025 3.01294 6.6135 3.07376C6.46675 3.13458 6.33361 3.22407 6.22188 3.337L5.35331 4.20458C3.07792 6.47997 2.41331 10.1741 3.48186 14.6006C4.61309 19.2896 7.52523 24.1618 11.681 28.3166C15.8368 32.4714 20.708 35.3806 25.3981 36.5158C29.8255 37.5843 33.5177 36.9197 35.793 34.6443L36.6606 33.7767C36.8873 33.5499 37.0146 33.2423 37.0146 32.9216C37.0146 32.6009 36.8873 32.2933 36.6606 32.0665L31.677 27.0819C31.4502 26.8552 31.1426 26.7279 30.8219 26.7279C30.5012 26.7279 30.1936 26.8552 29.9668 27.0819L26.2348 30.8139C26.0109 31.0379 25.7215 31.1849 25.4084 31.2335C25.0954 31.2822 24.7751 31.23 24.4937 31.0845C21.4343 29.5025 18.35 27.1993 15.5742 24.4235C12.7983 21.6476 10.5001 18.5653 8.91415 15.5059C8.76851 15.2247 8.71614 14.9043 8.76461 14.5913C8.81308 14.2783 8.95988 13.9889 9.18377 13.7648L12.9167 10.0328C13.1434 9.80599 13.2707 9.49841 13.2707 9.17771C13.2707 8.85701 13.1434 8.54943 12.9167 8.32257L7.93216 3.337C7.82008 3.22427 7.68673 3.13491 7.53985 3.07411C7.39298 3.01331 7.23549 2.98228 7.07652 2.98281Z" fill="#D9DEEA"/>
    <path d="M30.908 22.0588C30.5122 22.0588 30.1326 21.9016 29.8527 21.6217C29.5728 21.3419 29.4156 20.9623 29.4156 20.5665C29.4127 17.9483 28.3715 15.4383 26.5203 13.5869C24.6691 11.7355 22.1591 10.694 19.541 10.6908C19.1452 10.6908 18.7656 10.5336 18.4857 10.2537C18.2058 9.97384 18.0486 9.59425 18.0486 9.19844C18.0486 8.80264 18.2058 8.42304 18.4857 8.14317C18.7656 7.86329 19.1452 7.70605 19.541 7.70605C26.6318 7.70605 32.4004 13.4766 32.4004 20.5665C32.4004 20.9623 32.2431 21.3419 31.9633 21.6217C31.6834 21.9016 31.3038 22.0588 30.908 22.0588Z" fill="#D9DEEA"/>
    <path d="M37.2158 22.0581C36.82 22.0581 36.4404 21.9008 36.1605 21.621C35.8807 21.3411 35.7234 20.9615 35.7234 20.5657C35.7234 11.6422 28.4605 4.38224 19.541 4.38224C19.1452 4.38224 18.7656 4.225 18.4857 3.94513C18.2058 3.66525 18.0486 3.28565 18.0486 2.88985C18.0486 2.49404 18.2058 2.11445 18.4857 1.83457C18.7656 1.55469 19.1452 1.39746 19.541 1.39746C30.1101 1.39746 38.7082 9.9966 38.7082 20.5657C38.7082 20.9615 38.551 21.3411 38.2711 21.621C37.9912 21.9008 37.6116 22.0581 37.2158 22.0581Z" fill="#D9DEEA"/>
</svg>
