<svg width="16" height="13" viewBox="0 0 16 13" fill="none" xmlns="http://www.w3.org/2000/svg">
    <path fill-rule="evenodd" clip-rule="evenodd" d="M15.0146 0.239459C14.3637 0.495853 13.7121 0.755136 13.0641 1.01081C12.4147 1.2672 11.7631 1.52576 11.1137 1.77854C10.6206 1.97355 10.1254 2.16999 9.63374 2.36427C9.14067 2.56 8.64542 2.75645 8.15235 2.95073C7.65929 3.14646 7.16403 3.34146 6.67097 3.53719L5.45357 4.01964L5.45066 4.01748L5.09286 3.78275C4.77433 3.57186 4.45216 3.35952 4.1329 3.14935C3.81364 2.93774 3.4922 2.72684 3.17295 2.51595C2.75115 2.24078 2.3279 1.96199 1.90901 1.68538C1.48866 1.40876 1.0654 1.12925 0.643606 0.851915C0.290167 0.616466 0 0.84758 0 1.35748C0 3.54874 0 5.74074 0 7.93272C0 8.44407 0.290894 9.05291 0.643606 9.28403C1.06395 9.56064 1.48866 9.84159 1.90901 10.1175C2.3279 10.3941 2.75115 10.6736 3.17295 10.9509C3.4922 11.1626 3.81364 11.3735 4.1329 11.5836L4.16127 11.6024L4.19108 11.6212L4.21072 11.6349L4.21799 11.6407L4.24635 11.6587L4.27326 11.6761L4.2849 11.684L4.30016 11.6949L4.32853 11.7122L4.35398 11.7288L4.35835 11.7317L4.37943 11.7469L4.40634 11.7635L4.42743 11.7779L4.43179 11.7801L4.45725 11.796L4.48125 11.8126L4.4958 11.822L4.50743 11.8292L4.53143 11.8444L4.55543 11.8595L4.5627 11.8646L4.57797 11.8754L4.60197 11.8906L4.62597 11.9057L4.64706 11.9209L4.6696 11.9361L4.68633 11.9462L4.69215 11.9498L4.71469 11.9642L4.73578 11.978L4.74597 11.9845L4.7576 11.9917L4.78015 12.0054L4.79978 12.0191L4.80269 12.0213L4.82087 12.0321L4.84196 12.0451L4.85869 12.056L4.8616 12.0574L4.88123 12.0704L4.90087 12.082L4.9125 12.0892L4.92123 12.0942L4.94087 12.1058L4.95905 12.1174L4.96486 12.121L4.97941 12.1289L4.99759 12.1398L5.01722 12.1506L5.03395 12.1607L5.05213 12.1715L5.07031 12.1816L5.08849 12.1918L5.10522 12.2019L5.11395 12.2055L5.12413 12.2105L5.14086 12.2206L5.17358 12.2365L5.17504 12.2373L5.19176 12.2459L5.20631 12.2531L5.20921 12.2539L5.22594 12.2625L5.24122 12.2705L5.2514 12.2748L5.25867 12.2777L5.27394 12.2856L5.28921 12.2936L5.29503 12.2958L5.30667 12.3001L5.32194 12.308L5.35321 12.3203L5.36848 12.3268L5.38375 12.3326L5.39902 12.3391L5.4143 12.3441L5.42011 12.347L5.42884 12.3499L5.44412 12.355C5.99391 12.5406 6.38734 12.3225 7.5931 11.8444C8.27235 11.5764 8.94795 11.3077 9.6272 11.0398C10.1203 10.8441 10.6141 10.6491 11.1071 10.4533C11.7565 10.1962 12.4082 9.9391 13.0576 9.68198C13.707 9.42559 14.5899 9.07602 15.2393 8.81963C16.0531 8.49823 15.9993 7.94572 15.9993 7.08698C15.9993 5.15572 16.0007 3.22302 15.9993 1.29176C16.0058 0.494409 15.56 0.0191766 15.0146 0.239459Z" fill="#32B561"/>
</svg>
