<svg width="30" height="31" viewBox="0 0 30 31" fill="none" xmlns="http://www.w3.org/2000/svg">
    <path d="M1.95651 2.75371C-0.393759 5.19494 0.0872607 7.78821 0.0872607 15.6665C0.0872607 22.2088 -1.05423 28.7674 4.91989 30.3114C6.78539 30.7912 23.3145 30.7912 25.1775 30.3089C27.6649 29.6671 29.6886 27.6496 29.9653 24.1317C30.0039 23.6407 30.0039 7.70098 29.964 7.20002C29.6699 3.45281 27.3633 1.2932 24.3239 0.8558C23.6273 0.754861 23.4877 0.724953 19.9137 0.718722C7.2365 0.724953 4.45756 0.16044 1.95651 2.75371Z" fill="url(#paint0_linear)"/>
    <path d="M15.0388 4.6298C10.5139 4.6298 6.21717 4.22729 4.57597 8.43932C3.89806 10.179 3.9965 12.4383 3.9965 15.6733C3.9965 18.5121 3.90553 21.1801 4.57597 22.906C6.21343 27.1206 10.5451 26.7168 15.0363 26.7168C19.3692 26.7168 23.8367 27.1679 25.4978 22.906C26.177 21.1489 26.0773 18.9233 26.0773 15.6733C26.0773 11.3591 26.3153 8.57391 24.223 6.48284C22.1045 4.36436 19.2396 4.6298 15.0338 4.6298H15.0388ZM14.0493 6.61992C23.4878 6.60497 24.6891 5.5557 24.0261 20.1321C23.7906 25.2875 19.8652 24.7217 15.04 24.7217C6.24209 24.7217 5.98912 24.47 5.98912 15.6683C5.98912 6.76448 6.68697 6.62491 14.0493 6.61743V6.61992ZM20.9331 8.45303C20.2016 8.45303 19.6084 9.0462 19.6084 9.7777C19.6084 10.5092 20.2016 11.1024 20.9331 11.1024C21.6646 11.1024 22.2578 10.5092 22.2578 9.7777C22.2578 9.0462 21.6646 8.45303 20.9331 8.45303ZM15.0388 10.002C11.9072 10.002 9.36872 12.5417 9.36872 15.6733C9.36872 18.8049 11.9072 21.3434 15.0388 21.3434C18.1704 21.3434 20.7076 18.8049 20.7076 15.6733C20.7076 12.5417 18.1704 10.002 15.0388 10.002ZM15.0388 11.9921C19.905 11.9921 19.9113 19.3545 15.0388 19.3545C10.1737 19.3545 10.1663 11.9921 15.0388 11.9921Z" fill="white"/>
    <defs>
        <linearGradient id="paint0_linear" x1="2.01386" y1="28.7164" x2="29.8101" y2="4.65906" gradientUnits="userSpaceOnUse">
            <stop stop-color="#FFDD55"/>
            <stop offset="0.5" stop-color="#FF543E"/>
            <stop offset="1" stop-color="#C837AB"/>
        </linearGradient>
    </defs>
</svg>
