<svg width="8" height="14" viewBox="0 0 8 14" fill="none" xmlns="http://www.w3.org/2000/svg">
    <path d="M0.292893 12.2929C-0.0976309 12.6834 -0.097631 13.3166 0.292893 13.7071C0.683417 14.0976 1.31658 14.0976 1.70711 13.7071L0.292893 12.2929ZM7 7L7.70711 7.70711C8.09763 7.31658 8.09763 6.68342 7.70711 6.29289L7 7ZM1.70711 0.292893C1.31658 -0.097632 0.683418 -0.097632 0.292895 0.292893C-0.0976299 0.683417 -0.09763 1.31658 0.292894 1.70711L1.70711 0.292893ZM1.70711 13.7071L7.70711 7.70711L6.29289 6.29289L0.292893 12.2929L1.70711 13.7071ZM7.70711 6.29289L1.70711 0.292893L0.292894 1.70711L6.29289 7.70711L7.70711 6.29289Z" fill="#371E64"/>
</svg>
