<svg width="35" height="36" viewBox="0 0 35 36" fill="none" xmlns="http://www.w3.org/2000/svg">
    <path d="M15.7723 2.8497L15.637 1.36453C15.5997 0.954452 15.9012 0.581119 16.3101 0.530952C16.3579 0.525119 17.1547 0.486036 17.9538 0.505286C22.4317 0.616119 26.6991 2.45711 29.8529 5.64327C33.0388 8.79793 34.8797 13.065 34.9958 17.5491C35.0261 18.9117 34.8884 20.2732 34.7519 20.8706C34.6604 21.2719 34.2608 21.5227 33.8595 21.4306L32.4042 21.0946C32.0029 21.0018 31.7515 20.6011 31.8431 20.1992C31.9242 19.8445 32.0373 18.7332 32.0105 17.6226C31.9154 13.9091 30.386 10.3747 27.7484 7.75843L27.7379 7.74793C25.1218 5.11069 21.593 3.58586 17.8745 3.48553C17.1944 3.46919 16.5137 3.50536 16.5137 3.50536C16.1415 3.55378 15.8096 3.25978 15.7723 2.8497Z" fill="#6F2C91"/>
    <path d="M34.9165 28.822C35.0955 29.3598 34.7683 30.2687 34.1862 30.8508L30.494 34.5433C29.6208 35.4172 27.9806 35.7537 26.8338 35.2947L25.1277 34.6127C15.5717 30.7896 4.7097 19.9274 0.88741 10.3701L0.204962 8.66439C-0.253503 7.51756 0.083055 5.87723 0.956238 5.00398L4.64845 1.31149C5.23058 0.728744 6.13992 0.401495 6.67713 0.581161C9.63324 1.56641 12.8332 4.76598 13.8183 7.72231C13.9974 8.25956 13.6702 9.16897 13.0881 9.75114L10.9783 11.861C10.3956 12.4432 10.2224 13.5142 10.5904 14.2504L11.1405 15.3511C12.7976 18.6656 16.8334 22.7017 20.1476 24.3589L21.2477 24.909C21.9844 25.2771 23.0547 25.1033 23.6368 24.5211L25.7472 22.4112C26.3293 21.829 27.2381 21.5018 27.7758 21.6809C30.7314 22.6661 33.9313 25.8663 34.9165 28.822Z" fill="#6F2C91"/>
    <path d="M16.068 6.10828L16.2045 7.60453C16.2419 8.01461 16.5224 8.30395 16.8316 8.24969C16.8316 8.24969 17.4038 8.20711 17.9801 8.22286C20.4223 8.28061 22.7484 9.28861 24.4732 11.024C26.2085 12.7489 27.2159 15.0753 27.2788 17.5223C27.3004 18.3145 27.2124 19.0979 27.2042 19.1288C27.1039 19.5284 27.3477 19.9274 27.749 20.0202L29.1996 20.355C29.6009 20.4477 30.0069 20.1981 30.1049 19.7985C30.1731 19.5237 30.2875 18.4883 30.2595 17.4436C30.1801 14.2312 28.8561 11.1769 26.583 8.91411C24.3198 6.64028 21.2663 5.31612 18.0541 5.23737C17.3624 5.2187 16.6758 5.26245 16.6758 5.26245C16.3031 5.31904 16.0313 5.6982 16.068 6.10828Z" fill="#6F2C91"/>
</svg>
