<svg width="153" height="300" viewBox="0 0 153 300" fill="none" xmlns="http://www.w3.org/2000/svg">
    <path d="M19.7223 79.6939L2.50229 71.8866C0.52481 60.0158 0.49144 49.5312 2.40218 40.4328C5.83027 24.1092 14.6264 12.8245 28.7905 6.57885C43.2223 0.38936 59.5366 -0.794647 77.7334 3.02683C104.761 8.70285 124.913 21.1772 138.188 40.4499C151.52 59.455 155.32 82.6051 149.587 109.9C147.171 121.407 142.761 131.098 136.357 138.974C130.009 146.582 122.901 152.493 115.03 156.707C107.428 160.978 99.6633 165.355 91.737 169.837C83.8668 174.052 76.4341 180.174 69.439 188.205C62.5001 195.968 57.3928 205.652 54.1173 217.258C49.9668 225.048 44.4127 228.212 37.4551 226.751C32.3707 225.684 28.1654 222.425 24.8391 216.977C21.5129 211.529 20.1576 204.678 20.7731 196.425C23.1334 185.186 27.9169 175.713 35.1234 168.006C42.3299 160.299 50.4316 154.317 59.4284 150.06C68.4813 145.535 77.3724 141.115 86.1015 136.802C95.1545 132.277 103.312 126.027 110.575 118.053C117.838 110.078 122.677 100.337 125.094 88.8306C128.129 74.3802 124.123 61.5247 113.076 50.264C102.086 38.7356 88.6967 31.3136 72.9083 27.9979C60.3311 25.3566 48.9527 26.3199 38.7732 30.8878C28.8612 35.5118 22.6408 43.8449 20.1119 55.8869C18.5945 63.1121 18.4647 71.0478 19.7223 79.6939ZM26.1635 246.592C33.3887 248.11 38.7354 252.585 42.2034 260.019C45.7276 267.186 46.6468 274.783 44.9608 282.811C43.7245 288.698 41.2411 293.206 37.5107 296.334C34.1042 299.251 29.9925 300.204 25.1757 299.192C17.6829 297.618 12.4419 293.305 9.4529 286.251C6.46386 279.197 5.84041 271.522 7.58255 263.226C8.81891 257.339 11.0066 252.909 14.1456 249.936C17.6083 246.752 21.6143 245.637 26.1635 246.592Z" fill="#EDF6E5"/>
</svg>
