<svg width="106" height="105" viewBox="0 0 106 105" fill="none" xmlns="http://www.w3.org/2000/svg">
    <path d="M52.5751 104.052C81.5651 104.052 105.15 80.7135 105.15 52.0261C105.15 23.3387 81.5651 0 52.5751 0C23.585 0 0 23.3387 0 52.0261C0 80.7135 23.585 104.052 52.5751 104.052ZM52.5751 4.63927C78.9803 4.63927 100.462 25.8966 100.462 52.0261C100.462 78.1557 78.9803 99.4129 52.5751 99.4129C26.1698 99.4129 4.68822 78.1557 4.68822 52.0261C4.68822 25.8966 26.1698 4.63927 52.5751 4.63927Z" fill="#2AA549"/>
    <path d="M39.6157 47.3505C44.9776 47.3505 49.3231 43.049 49.3231 37.7444C49.3244 32.4384 44.9776 28.137 39.6157 28.137C34.2538 28.137 29.9083 32.4384 29.9083 37.7431C29.9136 43.0464 34.2565 47.344 39.6157 47.3505ZM39.6157 32.7763C42.3876 32.7763 44.6349 35.0001 44.6349 37.7431C44.6362 40.4873 42.3889 42.7112 39.6157 42.7112C36.8439 42.7112 34.5966 40.4873 34.5966 37.7431C34.5992 35.0014 36.8452 32.7801 39.6157 32.7763Z" fill="#2AA549"/>
    <path d="M55.2384 66.8912C55.2384 72.197 59.5852 76.4971 64.9458 76.4971C70.3076 76.4971 74.6544 72.197 74.6544 66.8912C74.6544 61.5853 70.3076 57.2839 64.9458 57.2839C59.5865 57.2904 55.2449 61.5879 55.2384 66.8912ZM69.9662 66.8912C69.9662 69.6341 67.7189 71.8579 64.9458 71.8579C62.1739 71.8579 59.9266 69.6341 59.9266 66.8912C59.9266 64.1483 62.1739 61.9245 64.9458 61.9232C67.7176 61.927 69.9623 64.1483 69.9662 66.8912Z" fill="#2AA549"/>
    <path d="M34.726 79.1081C35.8105 79.8083 37.2638 79.5054 37.9701 78.4324L71.1069 28.154C71.566 27.4588 71.6157 26.5747 71.2377 25.8343C70.8583 25.0939 70.1088 24.6098 69.2716 24.5658C68.4344 24.5218 67.6365 24.923 67.18 25.6194L34.0432 75.8979C33.3355 76.9722 33.6416 78.4091 34.726 79.1081Z" fill="#2AA549"/>
</svg>
