<svg xmlns="http://www.w3.org/2000/svg" display="none">

    <symbol id="play-icon" viewBox="0 0 12 14">
        <path d="M10.5 6.13398C11.1667 6.51887 11.1667 7.48112 10.5 7.86602L3.00003 12.1962C2.33336 12.5811 1.50003 12.0999 1.50003 11.3301L1.50003 2.66987C1.50003 1.90007 2.33336 1.41895 3.00003 1.80385L10.5 6.13398Z"
              stroke-width="2" stroke-linejoin="round"/>
    </symbol>

    <symbol id="checkbox" viewBox="0 0 15 13">
        <path d="M1.67267 5.76006C1.26402 5.38855 0.631567 5.41867 0.26006 5.82733C-0.111447 6.23598 -0.0813304 6.86843 0.327327 7.23994L1.67267 5.76006ZM6.5 11.5L5.82733 12.2399C6.03869 12.4321 6.32213 12.5247 6.60617 12.4943C6.8902 12.464 7.1477 12.3137 7.31373 12.0812L6.5 11.5ZM14.8137 1.58124C15.1347 1.13183 15.0307 0.507276 14.5812 0.186267C14.1318 -0.134742 13.5073 -0.0306507 13.1863 0.418762L14.8137 1.58124ZM0.327327 7.23994L5.82733 12.2399L7.17267 10.7601L1.67267 5.76006L0.327327 7.23994ZM7.31373 12.0812L14.8137 1.58124L13.1863 0.418762L5.68627 10.9188L7.31373 12.0812Z"/>
    </symbol>

    <symbol id="whatsapp" viewBox="0 0 30 31">
        <path d="M15.0037 0.670898H14.9963C6.72563 0.670898 0 7.3984 0 15.6709C0 18.9521 1.0575 21.9934 2.85562 24.4628L0.98625 30.0353L6.75187 28.1922C9.12375 29.7634 11.9531 30.6709 15.0037 30.6709C23.2744 30.6709 30 23.9415 30 15.6709C30 7.40027 23.2744 0.670898 15.0037 0.670898Z"
              fill="#4CAF50"/>
        <path d="M23.7319 21.8525C23.37 22.8744 21.9338 23.7219 20.7881 23.9694C20.0044 24.1363 18.9806 24.2694 15.5344 22.8406C11.1263 21.0144 8.28752 16.535 8.06627 16.2444C7.85439 15.9538 6.28502 13.8725 6.28502 11.72C6.28502 9.5675 7.37814 8.51938 7.81877 8.06938C8.18064 7.7 8.77876 7.53125 9.35251 7.53125C9.53814 7.53125 9.70502 7.54063 9.85502 7.54813C10.2956 7.56688 10.5169 7.59313 10.8075 8.28875C11.1694 9.16063 12.0506 11.3131 12.1556 11.5344C12.2625 11.7556 12.3694 12.0556 12.2194 12.3463C12.0788 12.6463 11.955 12.7794 11.7338 13.0344C11.5125 13.2894 11.3025 13.4844 11.0813 13.7581C10.8788 13.9963 10.65 14.2513 10.905 14.6919C11.16 15.1231 12.0413 16.5613 13.3388 17.7163C15.0131 19.2069 16.3706 19.6831 16.8563 19.8856C17.2181 20.0356 17.6494 20 17.9138 19.7188C18.2494 19.3569 18.6638 18.7569 19.0856 18.1663C19.3856 17.7425 19.7644 17.69 20.1619 17.84C20.5669 17.9806 22.71 19.04 23.1506 19.2594C23.5913 19.4806 23.8819 19.5856 23.9888 19.7713C24.0938 19.9569 24.0938 20.8288 23.7319 21.8525Z"
              fill="#FAFAFA"/>
    </symbol>

    <symbol id="telegram" viewBox="0 0 30 31">
        <path d="M15 30.6709C23.2843 30.6709 30 23.9552 30 15.6709C30 7.38663 23.2843 0.670898 15 0.670898C6.71573 0.670898 0 7.38663 0 15.6709C0 23.9552 6.71573 30.6709 15 30.6709Z"
              fill="#039BE5"/>
        <path d="M6.86377 15.3466L21.3263 9.7704C21.9975 9.5279 22.5838 9.93415 22.3663 10.9491L22.3675 10.9479L19.905 22.5491C19.7225 23.3716 19.2338 23.5716 18.55 23.1841L14.8 20.4204L12.9913 22.1629C12.7913 22.3629 12.6225 22.5316 12.235 22.5316L12.5013 18.7154L19.4513 12.4366C19.7538 12.1704 19.3838 12.0204 18.985 12.2854L10.3963 17.6929L6.69377 16.5379C5.89002 16.2829 5.87252 15.7341 6.86377 15.3466Z"
              fill="white"/>
    </symbol>

    <symbol id="viber" viewBox="0 0 29 31">
        <path d="M28.1891 18.0383C29.0833 10.5112 27.7595 5.75917 25.3716 3.60982L25.3729 3.60857C21.5188 -0.0619449 8.50273 -0.605216 3.8918 3.77342C1.82113 5.91528 1.09177 9.05876 1.01184 12.9503C0.931911 16.8431 0.836994 24.1355 7.63225 26.1137H7.63849L7.63225 29.1348C7.63225 29.1348 7.58604 30.3587 8.36785 30.6048C9.26206 30.8945 9.66671 30.3263 12.448 27.0042C17.0989 27.4076 20.6707 26.4834 21.0766 26.3485C22.0158 26.0338 27.3299 25.3307 28.1891 18.0383ZM12.9063 24.8786C12.9063 24.8786 9.9627 28.5491 9.04725 29.502C8.74752 29.8117 8.41906 29.783 8.42405 29.1685C8.42405 28.7651 8.44653 24.1529 8.44653 24.1529C2.68536 22.5019 3.02506 16.2924 3.08751 13.044C3.14995 9.79436 3.74443 7.13296 5.49788 5.34079C9.54307 1.54789 20.9543 2.39589 23.8617 5.12848C27.4161 8.27945 26.1509 17.1816 26.1584 17.4851C25.4278 23.5722 21.1216 23.9581 20.3298 24.2216C19.9913 24.334 16.8504 25.1421 12.9063 24.8786Z"
              fill="#8E24AA"/>
        <path d="M14.5349 6.05371C14.0541 6.05371 14.0541 6.80305 14.5349 6.80929C18.2654 6.83802 21.3377 9.43823 21.3714 14.2078C21.3714 14.7111 22.1082 14.7048 22.102 14.2015H22.1007C22.0608 9.06231 18.7062 6.08244 14.5349 6.05371Z"
              fill="#8E24AA"/>
        <path d="M19.4418 13.4172C19.4306 13.9143 20.1662 13.938 20.1724 13.4347C20.2336 10.6009 18.4864 8.26674 15.2031 8.02071C14.7223 7.98574 14.6723 8.74132 15.1519 8.77629C17.9994 8.99235 19.4993 10.9356 19.4418 13.4172Z"
              fill="#8E24AA"/>
        <path d="M18.655 16.6402C18.0381 16.283 17.4099 16.5053 17.1501 16.8563L16.6068 17.5594C16.3308 17.9166 15.815 17.8691 15.815 17.8691C12.0508 16.8738 11.0442 12.9347 11.0442 12.9347C11.0442 12.9347 10.998 12.4014 11.3427 12.1154L12.0221 11.5534C12.3618 11.2837 12.5766 10.6343 12.2307 9.99607C11.3065 8.32629 10.6858 7.75055 10.3698 7.30844C10.0376 6.89256 9.53806 6.79889 9.01851 7.07989H9.00727C7.92698 7.71183 6.74427 8.89454 7.12269 10.1122C7.76837 11.3961 8.95482 15.4887 12.7365 18.581C14.5137 20.0435 17.3262 21.5421 18.5201 21.8881L18.5314 21.9056C19.7078 22.2977 20.8518 21.0688 21.4625 19.956V19.9473C21.7335 19.409 21.6436 18.8995 21.2477 18.566C20.5458 17.8816 19.4868 17.126 18.655 16.6402Z"
              fill="#8E24AA"/>
        <path d="M15.7176 10.8081C16.9178 10.8781 17.4998 11.505 17.5622 12.7926C17.5847 13.2959 18.3153 13.261 18.2928 12.7577C18.2129 11.0767 17.3362 10.14 15.7576 10.0526C15.2767 10.0238 15.2318 10.7794 15.7176 10.8081Z"
              fill="#8E24AA"/>
    </symbol>

    <symbol id="question" viewBox="0 0 30 31">
        <path d="M6.81875 18.9814L1.25 23.3564V3.98145C1.25 3.64992 1.3817 3.33198 1.61612 3.09756C1.85054 2.86314 2.16848 2.73145 2.5 2.73145H21.25C21.5815 2.73145 21.8995 2.86314 22.1339 3.09756C22.3683 3.33198 22.5 3.64992 22.5 3.98145V18.9814H6.81875ZM5.95375 16.4814H20V5.23145H3.75V18.2127L5.95375 16.4814ZM10 21.4814H22.7962L25 23.2127V10.2314H26.25C26.5815 10.2314 26.8995 10.3631 27.1339 10.5976C27.3683 10.832 27.5 11.1499 27.5 11.4814V28.3564L21.9312 23.9814H11.25C10.9185 23.9814 10.6005 23.8498 10.3661 23.6153C10.1317 23.3809 10 23.063 10 22.7314V21.4814Z"/>
    </symbol>

</svg>