<svg xmlns="http://www.w3.org/2000/svg" display="none">

    <symbol id="play-icon" viewBox="0 0 11 14">
        <path d="M10.3235 6.13396C10.9902 6.51886 10.9902 7.48111 10.3235 7.86601L1.58825 12.9093C0.921585 13.2942 0.0882524 12.8131 0.0882525 12.0433L0.0882529 1.95666C0.0882529 1.18686 0.921586 0.705732 1.58825 1.09063L10.3235 6.13396Z"/>
    </symbol>


    <symbol id="checkbox" viewBox="0 0 15 13">
        <path d="M1.67267 5.76006C1.26402 5.38855 0.631567 5.41867 0.26006 5.82733C-0.111447 6.23598 -0.0813304 6.86843 0.327327 7.23994L1.67267 5.76006ZM6.5 11.5L5.82733 12.2399C6.03869 12.4321 6.32213 12.5247 6.60617 12.4943C6.8902 12.464 7.1477 12.3137 7.31373 12.0812L6.5 11.5ZM14.8137 1.58124C15.1347 1.13183 15.0307 0.507276 14.5812 0.186267C14.1318 -0.134742 13.5073 -0.0306507 13.1863 0.418762L14.8137 1.58124ZM0.327327 7.23994L5.82733 12.2399L7.17267 10.7601L1.67267 5.76006L0.327327 7.23994ZM7.31373 12.0812L14.8137 1.58124L13.1863 0.418762L5.68627 10.9188L7.31373 12.0812Z"/>
    </symbol>

    <symbol id="whatsapp" viewBox="0 0 30 31">
        <path d="M15.0037 0.670898H14.9963C6.72563 0.670898 0 7.3984 0 15.6709C0 18.9521 1.0575 21.9934 2.85562 24.4628L0.98625 30.0353L6.75187 28.1922C9.12375 29.7634 11.9531 30.6709 15.0037 30.6709C23.2744 30.6709 30 23.9415 30 15.6709C30 7.40027 23.2744 0.670898 15.0037 0.670898Z"
              fill="#4CAF50"/>
        <path d="M23.7319 21.8525C23.37 22.8744 21.9338 23.7219 20.7881 23.9694C20.0044 24.1363 18.9806 24.2694 15.5344 22.8406C11.1263 21.0144 8.28752 16.535 8.06627 16.2444C7.85439 15.9538 6.28502 13.8725 6.28502 11.72C6.28502 9.5675 7.37814 8.51938 7.81877 8.06938C8.18064 7.7 8.77876 7.53125 9.35251 7.53125C9.53814 7.53125 9.70502 7.54063 9.85502 7.54813C10.2956 7.56688 10.5169 7.59313 10.8075 8.28875C11.1694 9.16063 12.0506 11.3131 12.1556 11.5344C12.2625 11.7556 12.3694 12.0556 12.2194 12.3463C12.0788 12.6463 11.955 12.7794 11.7338 13.0344C11.5125 13.2894 11.3025 13.4844 11.0813 13.7581C10.8788 13.9963 10.65 14.2513 10.905 14.6919C11.16 15.1231 12.0413 16.5613 13.3388 17.7163C15.0131 19.2069 16.3706 19.6831 16.8563 19.8856C17.2181 20.0356 17.6494 20 17.9138 19.7188C18.2494 19.3569 18.6638 18.7569 19.0856 18.1663C19.3856 17.7425 19.7644 17.69 20.1619 17.84C20.5669 17.9806 22.71 19.04 23.1506 19.2594C23.5913 19.4806 23.8819 19.5856 23.9888 19.7713C24.0938 19.9569 24.0938 20.8288 23.7319 21.8525Z"
              fill="#FAFAFA"/>
    </symbol>

    <symbol id="telegram" viewBox="0 0 30 31">
        <path d="M15 30.6709C23.2843 30.6709 30 23.9552 30 15.6709C30 7.38663 23.2843 0.670898 15 0.670898C6.71573 0.670898 0 7.38663 0 15.6709C0 23.9552 6.71573 30.6709 15 30.6709Z"
              fill="#039BE5"/>
        <path d="M6.86377 15.3466L21.3263 9.7704C21.9975 9.5279 22.5838 9.93415 22.3663 10.9491L22.3675 10.9479L19.905 22.5491C19.7225 23.3716 19.2338 23.5716 18.55 23.1841L14.8 20.4204L12.9913 22.1629C12.7913 22.3629 12.6225 22.5316 12.235 22.5316L12.5013 18.7154L19.4513 12.4366C19.7538 12.1704 19.3838 12.0204 18.985 12.2854L10.3963 17.6929L6.69377 16.5379C5.89002 16.2829 5.87252 15.7341 6.86377 15.3466Z"
              fill="white"/>
    </symbol>

    <symbol id="viber" viewBox="0 0 29 31">
        <path d="M28.1891 18.0383C29.0833 10.5112 27.7595 5.75917 25.3716 3.60982L25.3729 3.60857C21.5188 -0.0619449 8.50273 -0.605216 3.8918 3.77342C1.82113 5.91528 1.09177 9.05876 1.01184 12.9503C0.931911 16.8431 0.836994 24.1355 7.63225 26.1137H7.63849L7.63225 29.1348C7.63225 29.1348 7.58604 30.3587 8.36785 30.6048C9.26206 30.8945 9.66671 30.3263 12.448 27.0042C17.0989 27.4076 20.6707 26.4834 21.0766 26.3485C22.0158 26.0338 27.3299 25.3307 28.1891 18.0383ZM12.9063 24.8786C12.9063 24.8786 9.9627 28.5491 9.04725 29.502C8.74752 29.8117 8.41906 29.783 8.42405 29.1685C8.42405 28.7651 8.44653 24.1529 8.44653 24.1529C2.68536 22.5019 3.02506 16.2924 3.08751 13.044C3.14995 9.79436 3.74443 7.13296 5.49788 5.34079C9.54307 1.54789 20.9543 2.39589 23.8617 5.12848C27.4161 8.27945 26.1509 17.1816 26.1584 17.4851C25.4278 23.5722 21.1216 23.9581 20.3298 24.2216C19.9913 24.334 16.8504 25.1421 12.9063 24.8786Z"
              fill="#8E24AA"/>
        <path d="M14.5349 6.05371C14.0541 6.05371 14.0541 6.80305 14.5349 6.80929C18.2654 6.83802 21.3377 9.43823 21.3714 14.2078C21.3714 14.7111 22.1082 14.7048 22.102 14.2015H22.1007C22.0608 9.06231 18.7062 6.08244 14.5349 6.05371Z"
              fill="#8E24AA"/>
        <path d="M19.4418 13.4172C19.4306 13.9143 20.1662 13.938 20.1724 13.4347C20.2336 10.6009 18.4864 8.26674 15.2031 8.02071C14.7223 7.98574 14.6723 8.74132 15.1519 8.77629C17.9994 8.99235 19.4993 10.9356 19.4418 13.4172Z"
              fill="#8E24AA"/>
        <path d="M18.655 16.6402C18.0381 16.283 17.4099 16.5053 17.1501 16.8563L16.6068 17.5594C16.3308 17.9166 15.815 17.8691 15.815 17.8691C12.0508 16.8738 11.0442 12.9347 11.0442 12.9347C11.0442 12.9347 10.998 12.4014 11.3427 12.1154L12.0221 11.5534C12.3618 11.2837 12.5766 10.6343 12.2307 9.99607C11.3065 8.32629 10.6858 7.75055 10.3698 7.30844C10.0376 6.89256 9.53806 6.79889 9.01851 7.07989H9.00727C7.92698 7.71183 6.74427 8.89454 7.12269 10.1122C7.76837 11.3961 8.95482 15.4887 12.7365 18.581C14.5137 20.0435 17.3262 21.5421 18.5201 21.8881L18.5314 21.9056C19.7078 22.2977 20.8518 21.0688 21.4625 19.956V19.9473C21.7335 19.409 21.6436 18.8995 21.2477 18.566C20.5458 17.8816 19.4868 17.126 18.655 16.6402Z"
              fill="#8E24AA"/>
        <path d="M15.7176 10.8081C16.9178 10.8781 17.4998 11.505 17.5622 12.7926C17.5847 13.2959 18.3153 13.261 18.2928 12.7577C18.2129 11.0767 17.3362 10.14 15.7576 10.0526C15.2767 10.0238 15.2318 10.7794 15.7176 10.8081Z"
              fill="#8E24AA"/>
    </symbol>


    <symbol id="next" viewBox="0 0 9 14">
        <path d="M1 1L7 6.85366L1 13" stroke-width="2" stroke-linecap="round"/>
    </symbol>


    <symbol id="tab1" viewBox="0 0 40 41">
        <path d="M39.2 17.1939C39.2 15.6337 37.9116 14.366 36.3259 14.366H33.8359C33.7739 14.2319 33.712 14.0979 33.6253 13.976L27.9514 5.28523C27.5426 4.66359 26.9108 4.22479 26.1799 4.06633C25.4366 3.90787 24.6933 4.04195 24.0491 4.44419C22.7359 5.27304 22.3643 6.99169 23.2067 8.28372L27.1709 14.3538H12.8415L16.8057 8.28372C17.103 7.83273 17.2517 7.32079 17.2517 6.78447C17.2517 5.83373 16.7686 4.95613 15.9509 4.44419C15.3191 4.04195 14.5634 3.90787 13.8201 4.06633C13.0892 4.22479 12.4574 4.6514 12.0486 5.28523L6.37475 13.976C6.28803 14.0979 6.22609 14.2319 6.16414 14.366H3.67409C2.08839 14.366 0.8 15.6337 0.8 17.1939V17.3767C0.8 18.9369 2.08839 20.2045 3.67409 20.2045H3.94664L8.66659 35.3554C8.79047 35.7455 9.14973 36.0015 9.55855 36.0015H30.4167C30.8255 36.0015 31.1848 35.7333 31.3086 35.3554L36.0286 20.2045H36.3011C37.8868 20.2045 39.1752 18.9369 39.1752 17.3767V17.1939H39.2ZM24.7552 7.3086C24.4703 6.8698 24.5942 6.28473 25.0401 5.99219C25.2631 5.85811 25.5109 5.80935 25.7711 5.85811C26.0188 5.90687 26.2418 6.05314 26.3781 6.27254L31.6555 14.3538H29.3637L24.7552 7.3086ZM13.6219 6.27254C13.7582 6.05314 13.9812 5.90687 14.2289 5.85811C14.4767 5.80935 14.7369 5.84592 14.9599 5.99219C15.2324 6.16284 15.4058 6.46756 15.4058 6.79666C15.4058 6.9795 15.3563 7.15014 15.2572 7.3086L10.6487 14.366H8.35688L13.6219 6.27254ZM29.7477 34.1731H10.2523L5.8916 20.2045H34.096L29.7477 34.1731ZM37.3418 17.3767C37.3418 17.9252 36.8834 18.3762 36.3259 18.3762H35.372H35.3596H4.65277H4.64038H3.68648C3.12901 18.3762 2.67064 17.9252 2.67064 17.3767V17.1939C2.67064 16.6454 3.12901 16.1944 3.68648 16.1944H6.85789H6.87028H11.1319H28.8434H33.1049C33.1049 16.1944 33.1049 16.1944 33.1173 16.1944H36.3011C36.8586 16.1944 37.317 16.6454 37.317 17.1939V17.3767H37.3418Z"
              fill="#371E64"/>
    </symbol>

    <symbol id="tab2" viewBox="0 0 40 41">
        <path fill-rule="evenodd" clip-rule="evenodd"
              d="M25.9116 21.7055L35.2243 31.0812C35.7348 31.6328 36.0128 32.3624 35.9995 33.1162C35.9863 33.87 35.683 34.5892 35.1535 35.1223C34.624 35.6554 33.9096 35.9608 33.1608 35.9741C32.4121 35.9874 31.6875 35.7076 31.1396 35.1936L22.983 26.9818L19.3478 26.8136L18.2817 25.7403L8.88871 35.1936C8.34275 35.7198 7.61379 36.0097 6.85805 36.0013C6.1023 35.9928 5.37991 35.6867 4.8457 35.1484C4.31149 34.6102 4.00795 33.8826 4.00015 33.1218C3.99235 32.3609 4.28091 31.6272 4.80398 31.078L14.1937 21.6408L7.51108 14.9161C6.47784 13.8742 5.89752 12.462 5.89752 10.9896C5.89752 9.51729 6.47784 8.10511 7.51108 7.06313L9.43784 5.12332L18.211 13.9462V13.8557L27.999 4.00146L29.3638 5.36257L20.0511 14.7383L19.5887 18.9412L6.16555 32.452C5.98483 32.6337 5.88319 32.8803 5.88296 33.1374C5.88495 33.3268 5.94195 33.5114 6.04694 33.6685C6.15193 33.8257 6.30031 33.9484 6.47377 34.0216C6.64724 34.0949 6.8382 34.1154 7.0231 34.0806C7.208 34.0459 7.37875 33.9574 7.51429 33.8261L20.9374 20.312L25.112 19.8497L34.4247 10.474L35.7863 11.8448L26.0016 21.7055H25.9116ZM7.84345 10.9783C7.84345 11.9358 8.22048 12.8543 8.89192 13.5324L15.5585 20.2506L17.7486 18.0328L17.9284 16.4163L9.44426 7.86815L8.89192 8.42423C8.22048 9.10236 7.84345 10.0208 7.84345 10.9783ZM33.182 34.0962C33.4353 34.0962 33.679 33.9984 33.8627 33.8228C34.0431 33.641 34.1445 33.3945 34.1445 33.1374C34.1445 32.8804 34.0431 32.6339 33.8627 32.452L23.4582 21.9803L21.8526 22.1613L19.6593 24.3662L20.1988 24.9094L23.8307 25.0775L32.5012 33.8228C32.6849 33.9984 32.9286 34.0962 33.182 34.0962Z"
              fill="#371E64"/>
        <path d="M22.9838 15.52L31.2106 7.23754L32.573 8.60919L24.3463 16.8917L22.9838 15.52Z" fill="#371E64"/>
    </symbol>

    <symbol id="tab3" viewBox="0 0 41 41">
        <path fill-rule="evenodd" clip-rule="evenodd"
              d="M39.4129 31.3528H34.0743C34.0215 31.7623 33.9005 32.1622 33.7143 32.5356C32.8627 34.1853 30.7318 35.0238 28.3292 34.6836C26.4481 36.1462 24.5507 37.5208 22.6849 38.7722C21.7778 39.4697 20.6908 39.8942 19.5511 39.996C19.4837 39.9993 19.4155 40.0015 19.346 40.0015C18.5053 40.0015 17.4425 39.7163 15.3146 38.5446C14.1069 37.8777 12.9404 37.1385 11.8217 36.331L6.88198 37.8128C6.7474 37.8531 6.60524 37.8612 6.46697 37.8364C6.32869 37.8116 6.19817 37.7547 6.08594 37.6702C3.42268 35.6654 1.34489 32.984 0.0684846 29.9046C0.0138908 29.7731 -0.00857997 29.6305 0.0029354 29.4886C0.0144512 29.3467 0.0596208 29.2096 0.134701 29.0886C0.209781 28.9677 0.312608 28.8664 0.434659 28.7931C0.556711 28.7198 0.694471 28.6767 0.836521 28.6673C3.00862 28.5315 5.14374 28.0586 7.1658 27.2677V0.897217C7.1658 0.659648 7.26017 0.431811 7.42816 0.263825C7.59614 0.0958388 7.82398 0.00146484 8.06155 0.00146484H39.4129C39.6504 0.00146484 39.8783 0.0958388 40.0463 0.263825C40.2142 0.431811 40.3086 0.659648 40.3086 0.897217V30.457C40.3086 30.6946 40.2142 30.9224 40.0463 31.0904C39.8783 31.2584 39.6504 31.3528 39.4129 31.3528ZM28.216 1.79297H38.5171V29.5613H29.2727C28.2582 29.4379 27.2712 29.1306 26.3611 28.6511C26.0259 28.4739 25.7033 28.274 25.3953 28.0528C25.6022 28.1004 25.827 28.1437 26.0742 28.1818C26.9082 28.3893 27.7879 28.309 28.5706 27.9538C29.3532 27.5985 29.9929 26.9893 30.3858 26.2249C30.5301 25.9952 30.6202 25.7356 30.6491 25.4659C30.6781 25.1962 30.6452 24.9234 30.5529 24.6683C30.2456 23.9151 29.5355 23.8465 28.9649 23.7914L28.9639 23.7913C28.3876 23.746 27.8173 23.643 27.2616 23.4839C26.6171 23.2898 25.984 23.0598 25.3652 22.795C24.7896 22.5606 24.1943 22.3183 23.529 22.1193C23.0278 21.9736 22.5127 21.881 21.9921 21.8429C20.8268 21.7581 19.6554 21.8535 18.5193 22.1258C18.0176 22.2282 17.6117 22.3275 17.3104 22.4058C16.9929 22.4882 16.8598 22.5298 16.716 22.5747L16.7147 22.5751L16.5647 22.6214C16.419 22.6647 16.3062 22.6949 16.2388 22.7128C15.4901 22.943 14.755 23.2153 14.0371 23.5285C12.8732 24.0799 11.7582 24.7288 10.7038 25.4683C10.1381 25.8292 9.55526 26.1621 8.9573 26.4659V1.79297H19.2584V8.06323C19.2584 8.3008 19.3528 8.52864 19.5208 8.69663C19.6888 8.86461 19.9166 8.95899 20.1542 8.95899H27.3202C27.5578 8.95899 27.7856 8.86461 27.9536 8.69663C28.1216 8.52864 28.216 8.3008 28.216 8.06323V1.79297ZM26.4245 1.79297H21.05V7.16748H26.4245V1.79297ZM29.1533 31.3519C29.109 31.35 29.0651 31.3448 29.0221 31.3365C27.8618 31.1922 26.7313 30.8483 25.6817 30.3164C24.1891 29.5602 22.9063 28.4473 21.947 27.0764C21.5636 27.0505 21.1788 27.0508 20.7954 27.0773C20.6336 27.0887 20.4997 27.1027 20.4109 27.1127C20.1753 27.1396 19.9385 27.0719 19.7527 26.9244C19.567 26.7769 19.4473 26.5618 19.4199 26.3261C19.3926 26.0905 19.4598 25.8536 19.6069 25.6676C19.754 25.4815 19.9689 25.3613 20.2045 25.3335C20.3117 25.3208 20.4735 25.3042 20.6716 25.2902C21.2969 25.2477 21.9248 25.2617 22.5475 25.3322L22.5646 25.3344C23.2252 25.4186 23.87 25.5988 24.4785 25.8693C25.0749 26.1301 25.7028 26.3123 26.3462 26.4112C26.6663 26.4929 26.9987 26.515 27.3268 26.4764C27.8721 26.3361 28.3536 26.0147 28.6923 25.5649C28.0409 25.5072 27.3966 25.3871 26.7682 25.2062C26.0619 24.9945 25.368 24.7435 24.6898 24.4544C24.1286 24.2256 23.5985 24.01 23.0155 23.8355C22.6333 23.7252 22.2406 23.6557 21.8437 23.6282C20.8478 23.5601 19.8474 23.6455 18.8774 23.8814C18.4138 23.9759 18.0385 24.0673 17.7599 24.1395C17.4916 24.2091 17.3768 24.245 17.2558 24.2827L17.2495 24.2847L17.0781 24.3376C16.9075 24.3883 16.7763 24.4238 16.7225 24.4378C16.0604 24.6443 15.4098 24.8859 14.7735 25.1616C13.7032 25.6728 12.6771 26.2719 11.7057 26.9527C10.8654 27.4916 9.99004 27.9736 9.08538 28.3956C8.8948 28.484 8.70308 28.5697 8.5103 28.6526C8.44651 28.6895 8.37841 28.7184 8.30758 28.7387C6.36893 29.5506 4.32515 30.0885 2.23516 30.3358C3.33314 32.5216 4.89366 34.4422 6.80838 35.9644L11.7338 34.487C11.8172 34.462 11.9039 34.4493 11.991 34.4494C12.1832 34.4493 12.3703 34.5111 12.5246 34.6256C13.6889 35.4895 14.9097 36.2745 16.1789 36.9752C18.5035 38.2556 19.1463 38.2227 19.4539 38.2069L19.4553 38.2068C20.2721 38.1191 21.0466 37.7988 21.6868 37.284C23.6196 35.988 25.5874 34.5565 27.5359 33.03C27.6368 32.9506 27.7537 32.8939 27.8786 32.8639C28.0034 32.8339 28.1333 32.8311 28.2593 32.856C29.9821 33.1906 31.6074 32.7107 32.1218 31.7148C32.1715 31.6181 32.211 31.5166 32.2399 31.4117H30.503C30.0509 31.4218 29.6001 31.4016 29.1533 31.3519Z"
              fill="#371E64"/>
    </symbol>


    <symbol id="tab4" viewBox="0 0 40 41">
        <path fill-rule="evenodd" clip-rule="evenodd"
              d="M10.4347 5.5553C9.94821 5.5553 9.55384 5.94967 9.55384 6.43615V18.4994C9.55384 18.9859 9.94821 19.3803 10.4347 19.3803H18.4465C18.933 19.3803 19.3274 18.9859 19.3274 18.4994V6.43615C19.3274 5.94967 18.933 5.5553 18.4465 5.5553H10.4347ZM11.3155 17.6186V7.317H17.5657V17.6186H11.3155Z"
              fill="#371E64"/>
        <path fill-rule="evenodd" clip-rule="evenodd"
              d="M10.4347 28.6802C9.94821 28.6802 9.55384 29.0745 9.55384 29.561V33.6125C9.55384 34.0989 9.94821 34.4933 10.4347 34.4933H18.4465C18.933 34.4933 19.3274 34.0989 19.3274 33.6125V29.561C19.3274 29.0745 18.933 28.6802 18.4465 28.6802H10.4347ZM11.3155 32.7316V30.4419H17.5657V32.7316H11.3155Z"
              fill="#371E64"/>
        <path fill-rule="evenodd" clip-rule="evenodd"
              d="M4.88085 0.00146484C4.39437 0.00146484 4 0.395833 4 0.882312V39.1206C4 39.6071 4.39437 40.0015 4.88085 40.0015H34.9252C35.4117 40.0015 35.8061 39.6071 35.8061 39.1206V0.882312C35.8061 0.395833 35.4117 0.00146484 34.9252 0.00146484H4.88085ZM5.76169 23.1718V1.76316H23.1187V23.1718H5.76169ZM24.8804 23.1718V1.76316H34.0444V23.1718H24.8804ZM5.76169 38.2398V24.9335H23.1187V38.2398H5.76169ZM24.8804 38.2398V24.9335H34.0444V38.2398H24.8804Z"
              fill="#371E64"/>
    </symbol>

    <symbol id="tab5" viewBox="0 0 47 41">
        <path d="M33.8861 0.00146507L12.9421 0.0218351C12.0946 0.0223564 11.3545 0.418263 10.8711 0.958856C10.3878 1.49945 10.1065 2.15251 9.91713 2.80574L7.4252 11.4256L6.95329 10.9537V7.84392C6.95324 7.36394 6.56415 6.97485 6.08417 6.9748H2.60769C2.27885 6.97446 1.97797 7.15971 1.83023 7.4535L0.0919901 10.9334C-0.195102 11.5108 0.224541 12.1889 0.869446 12.1895H5.73109L6.6749 13.1333L2.02035 17.5265C1.84604 17.6915 1.74774 17.9213 1.74875 18.1613V32.4916L1.75214 32.4373C1.68292 33.5707 2.49492 34.5056 3.52773 34.7323C3.4976 34.8232 3.48269 34.9184 3.48359 35.0141V36.9866C3.48359 38.6324 4.82217 39.9989 6.4644 39.998H9.19738C10.8397 39.9975 12.1748 38.6324 12.1748 36.9866V34.7867H12.8742C12.8844 34.7868 12.8945 34.7868 12.9047 34.7867C13.4379 34.8731 13.92 34.4576 13.913 33.9175C13.913 33.4211 14.2857 33.0452 14.7822 33.045H14.7856L32.046 33.028C32.5425 33.0279 32.9151 33.4007 32.9151 33.8972C32.9097 34.4197 33.3634 34.8289 33.8827 34.7697C33.9075 34.7719 33.9324 34.773 33.9574 34.7732H34.6805C34.6588 34.8528 34.6485 34.9351 34.6499 35.0176V36.9901C34.6499 38.6359 35.9851 40.0023 37.6274 40.0015H40.3637C42.0061 39.9976 43.3411 38.6324 43.3411 36.9866V34.7018C44.3351 34.4587 45.0668 33.5444 45.0828 32.4916V32.4713V18.141C45.0828 17.9038 44.9859 17.6769 44.8146 17.5129L40.177 13.0858L41.0903 12.1725H45.9519C46.5992 12.1732 47.02 11.4914 46.7294 10.913L44.9911 7.43991C44.8443 7.14481 44.5433 6.95812 44.2137 6.95782H40.7372C40.2572 6.95787 39.8681 7.34696 39.8681 7.82695V10.9368L39.4063 11.3985L36.911 2.78876C36.7216 2.1357 36.4439 1.47873 35.9604 0.938486C35.4769 0.39824 34.7335 0.00111742 33.8861 0.00146507ZM33.8861 1.73971C34.2517 1.73953 34.4387 1.84736 34.6635 2.09958C34.8883 2.35075 35.0967 2.77441 35.2407 3.27085L37.9227 12.5222C36.2495 12.8317 32.4524 13.921 23.4141 13.921C17.0527 13.921 10.592 12.8468 8.90881 12.5392L11.5875 3.29122C11.7315 2.79461 11.9431 2.36825 12.168 2.11655C12.393 1.86503 12.5765 1.76025 12.9421 1.76008H12.9455L33.8861 1.73971ZM41.6063 8.69607H43.6773L44.5464 10.4343H41.6063V8.69607ZM3.1441 8.7131H5.21505V10.4513H2.27498L3.1441 8.7131ZM38.7545 14.1417L43.3445 18.5213V32.4645C43.3391 32.815 43.1171 33.0349 42.8251 33.0349H34.4938C34.1333 32.0247 33.1727 31.2894 32.046 31.2898L14.7822 31.3068C13.658 31.3073 12.7002 32.0413 12.3378 33.0485H4.00982C3.7188 33.0487 3.47043 32.814 3.48699 32.5426C3.48749 32.5256 3.48749 32.5087 3.48699 32.4917V18.5348L8.11778 14.1621C8.84924 14.3057 16.0021 15.6636 23.4141 15.6593C33.5742 15.6593 38.1248 14.2668 38.7545 14.1417ZM32.046 20.8604L14.7822 20.8773C14.1907 20.8778 13.7724 21.4562 13.9572 22.0181L16.2183 28.954C16.3343 29.3117 16.6672 29.5542 17.0432 29.555H29.7883C30.1643 29.5542 30.4972 29.3117 30.6133 28.954L32.8744 21.9977C33.0566 21.4355 32.6369 20.8593 32.046 20.8604ZM40.7915 20.8671V20.8706C38.4179 20.7281 36.3913 21.4603 35.0098 22.8805C33.6831 24.2443 33.0099 26.2045 32.9558 28.4347C32.9297 28.5171 32.9447 29.4095 32.9438 29.4959L32.9666 29.5259L33.7842 29.555H40.7371C41.2171 29.5549 41.6062 29.1658 41.6062 28.6859V26.9748V21.7329C41.6053 21.2747 41.2488 20.8958 40.7915 20.8671ZM6.04003 20.8807C5.58005 20.9077 5.22109 21.289 5.22184 21.7498V26.9883V28.7028C5.22189 29.1828 5.61098 29.5719 6.09096 29.5719H13.0439C13.5239 29.5719 13.913 29.1828 13.913 28.7028C13.913 26.3562 13.2035 24.3098 11.8217 22.8905C10.44 21.4714 8.41365 20.7391 6.04003 20.8841V20.8807ZM30.8509 22.5952V22.5987L30.2874 24.3369L16.5476 24.3539L15.9806 22.6157L30.8509 22.5952ZM39.8681 22.7038V26.9781V27.8201H34.7925C34.9509 26.2701 35.4125 24.9592 36.2558 24.0924C37.1042 23.2201 38.3468 22.7833 39.8681 22.7038ZM6.96008 22.7141C8.48298 22.7923 9.72685 23.2273 10.5758 24.0992C11.4202 24.9666 11.8816 26.2806 12.039 27.8337H6.96008V26.9884V22.7141ZM29.7204 26.0751L29.1568 27.8167H17.6747L17.1111 26.0921L29.7204 26.0751ZM36.3576 34.7731H41.6029V36.9866C41.6029 37.7134 41.0587 38.2596 40.3637 38.2597H37.6274C36.9324 38.2634 36.3882 37.7169 36.3882 36.99V35.0175C36.3896 34.935 36.3793 34.8527 36.3576 34.7731ZM5.19468 34.7866H10.4366V36.9866C10.4366 37.7134 9.89231 38.2595 9.19739 38.2597H6.46441C5.76941 38.2601 5.22184 37.7135 5.22184 36.9866V35.0141C5.22286 34.9374 5.21372 34.8609 5.19468 34.7866Z"
              fill="#371E64"/>
    </symbol>

    <symbol id="tab6" viewBox="0 0 40 41">
        <path fill-rule="evenodd" clip-rule="evenodd"
              d="M1.16928 5.8936H5.26215C5.78506 7.93733 7.64746 9.45148 9.8582 9.45148C12.0672 9.45148 13.9276 7.93708 14.45 5.8936H38.1969C38.8414 5.8936 39.3662 5.37256 39.3662 4.72698C39.3662 4.08141 38.8414 3.56036 38.1969 3.56036H14.4501C13.9278 1.51638 12.0673 0.00146484 9.8582 0.00146484C7.64728 0.00146484 5.78481 1.5161 5.26205 3.56036H1.16928C0.524773 3.56036 0 4.08141 0 4.72698C0 5.37255 0.524773 5.8936 1.16928 5.8936Z"
              fill="#371E64"/>
        <path fill-rule="evenodd" clip-rule="evenodd"
              d="M1.16928 21.1681H16.3942C16.917 23.2123 18.7794 24.7269 20.9903 24.7269C23.2002 24.7269 25.0616 23.2122 25.5841 21.1681H38.1969C38.8414 21.1681 39.3662 20.6471 39.3662 20.0015C39.3662 19.3559 38.8414 18.8349 38.1969 18.8349H25.5841C25.0615 16.791 23.2002 15.2764 20.9903 15.2764C18.7795 15.2764 16.917 16.7909 16.3942 18.8349H1.16928C0.524774 18.8349 0 19.3559 0 20.0015C0 20.6471 0.524774 21.1681 1.16928 21.1681ZM38.197 19.2271H25.2686H38.197Z"
              fill="#371E64"/>
        <path fill-rule="evenodd" clip-rule="evenodd"
              d="M1.16928 36.443H9.72548C10.2481 38.4869 12.1097 40.0015 14.3197 40.0015C16.5296 40.0015 18.3909 38.4869 18.9134 36.443H38.1969C38.8414 36.443 39.3662 35.9219 39.3662 35.2764C39.3662 34.6308 38.8414 34.1097 38.1969 34.1097H18.9134C18.3909 32.0659 16.5295 30.5514 14.3197 30.5514C12.1097 30.5514 10.2481 32.0659 9.72549 34.1097H1.16928C0.524773 34.1097 0 34.6308 0 35.2764C0 35.9219 0.524773 36.443 1.16928 36.443ZM38.1969 34.5019H18.598H38.1969Z"
              fill="#371E64"/>
    </symbol>


    <symbol id="basket" viewBox="0 0 25 22" fill="none">
        <path d="M9.7432 21.9999C10.8604 21.9999 11.7661 21.0899 11.7661 19.9674C11.7661 18.8448 10.8604 17.9348 9.7432 17.9348C8.62601 17.9348 7.72035 18.8448 7.72035 19.9674C7.72035 21.0899 8.62601 21.9999 9.7432 21.9999Z"
              fill="#2AA549"/>
        <path d="M17.9337 21.9999C19.0509 21.9999 19.9566 21.0899 19.9566 19.9674C19.9566 18.8448 19.0509 17.9348 17.9337 17.9348C16.8165 17.9348 15.9109 18.8448 15.9109 19.9674C15.9109 21.0899 16.8165 21.9999 17.9337 21.9999Z"
              fill="#2AA549"/>
        <path d="M23.0923 6.4576C20.5056 6.4576 7.69779 6.4576 7.69779 6.4576C7.69779 6.4576 7.67975 6.46212 7.65418 6.46969V6.4576C7.65418 6.4576 7.43461 4.57615 7.30826 3.7949C7.18342 3.01513 5.2433 2.04041 1.06678 0.0607733C0.0831591 -0.353243 -0.736465 1.44956 1.06678 2.39707L4.36046 3.94299C4.36046 3.94299 5.12595 4.38879 5.19215 4.99024C5.25836 5.5917 6.59383 15.5473 6.59383 15.5473C6.59383 15.5473 6.64649 16.93 7.89927 16.93C9.15205 16.93 19.4181 16.93 20.4679 16.93C21.5177 16.93 21.7237 15.8269 21.7237 15.8269L24.2127 8.3934C24.2128 8.3964 24.9513 6.4576 23.0923 6.4576ZM20.0197 14.5348H8.65277L7.89776 8.49767H21.799L20.0197 14.5348Z"
              fill="#2AA549"/>
    </symbol>

    <symbol id="arrow-right" viewBox="0 0 22 14">
        <path d="M14 1L20 6.85366L14 13" stroke-width="2" stroke-linecap="round"/>
        <path d="M19 7L1 7" stroke-width="2" stroke-linecap="round"/>
    </symbol>
    <symbol id="arrow-left" viewBox="0 0 22 14">
        <path d="M7.5 13L1.5 7.14634L7.5 1" stroke-width="2" stroke-linecap="round"/>
        <path d="M2.5 7H20.5" stroke-width="2" stroke-linecap="round"/>
    </symbol>

    <symbol id="plus" viewBox="0 0 14 14">
        <path d="M7.01958 0L7.01958 14M14 7.01965L0 7.01965" stroke-width="2"/>
    </symbol>

</svg>