<svg xmlns="http://www.w3.org/2000/svg" display="none">

    <symbol id="play-icon" viewBox="0 0 12 14">
        <path d="M10.5 6.13398C11.1667 6.51887 11.1667 7.48112 10.5 7.86602L3.00003 12.1962C2.33336 12.5811 1.50003 12.0999 1.50003 11.3301L1.50003 2.66987C1.50003 1.90007 2.33336 1.41895 3.00003 1.80385L10.5 6.13398Z"
              stroke-width="2" stroke-linejoin="round"/>
    </symbol>

    <symbol id="checkbox" viewBox="0 0 15 13">
        <path d="M1.67267 5.76006C1.26402 5.38855 0.631567 5.41867 0.26006 5.82733C-0.111447 6.23598 -0.0813304 6.86843 0.327327 7.23994L1.67267 5.76006ZM6.5 11.5L5.82733 12.2399C6.03869 12.4321 6.32213 12.5247 6.60617 12.4943C6.8902 12.464 7.1477 12.3137 7.31373 12.0812L6.5 11.5ZM14.8137 1.58124C15.1347 1.13183 15.0307 0.507276 14.5812 0.186267C14.1318 -0.134742 13.5073 -0.0306507 13.1863 0.418762L14.8137 1.58124ZM0.327327 7.23994L5.82733 12.2399L7.17267 10.7601L1.67267 5.76006L0.327327 7.23994ZM7.31373 12.0812L14.8137 1.58124L13.1863 0.418762L5.68627 10.9188L7.31373 12.0812Z"/>
    </symbol>

    <symbol id="whatsapp" viewBox="0 0 30 31">
        <path d="M15.0037 0.670898H14.9963C6.72563 0.670898 0 7.3984 0 15.6709C0 18.9521 1.0575 21.9934 2.85562 24.4628L0.98625 30.0353L6.75187 28.1922C9.12375 29.7634 11.9531 30.6709 15.0037 30.6709C23.2744 30.6709 30 23.9415 30 15.6709C30 7.40027 23.2744 0.670898 15.0037 0.670898Z"
              fill="#4CAF50"/>
        <path d="M23.7319 21.8525C23.37 22.8744 21.9338 23.7219 20.7881 23.9694C20.0044 24.1363 18.9806 24.2694 15.5344 22.8406C11.1263 21.0144 8.28752 16.535 8.06627 16.2444C7.85439 15.9538 6.28502 13.8725 6.28502 11.72C6.28502 9.5675 7.37814 8.51938 7.81877 8.06938C8.18064 7.7 8.77876 7.53125 9.35251 7.53125C9.53814 7.53125 9.70502 7.54063 9.85502 7.54813C10.2956 7.56688 10.5169 7.59313 10.8075 8.28875C11.1694 9.16063 12.0506 11.3131 12.1556 11.5344C12.2625 11.7556 12.3694 12.0556 12.2194 12.3463C12.0788 12.6463 11.955 12.7794 11.7338 13.0344C11.5125 13.2894 11.3025 13.4844 11.0813 13.7581C10.8788 13.9963 10.65 14.2513 10.905 14.6919C11.16 15.1231 12.0413 16.5613 13.3388 17.7163C15.0131 19.2069 16.3706 19.6831 16.8563 19.8856C17.2181 20.0356 17.6494 20 17.9138 19.7188C18.2494 19.3569 18.6638 18.7569 19.0856 18.1663C19.3856 17.7425 19.7644 17.69 20.1619 17.84C20.5669 17.9806 22.71 19.04 23.1506 19.2594C23.5913 19.4806 23.8819 19.5856 23.9888 19.7713C24.0938 19.9569 24.0938 20.8288 23.7319 21.8525Z"
              fill="#FAFAFA"/>
    </symbol>

    <symbol id="telegram" viewBox="0 0 30 31">
        <path d="M15 30.6709C23.2843 30.6709 30 23.9552 30 15.6709C30 7.38663 23.2843 0.670898 15 0.670898C6.71573 0.670898 0 7.38663 0 15.6709C0 23.9552 6.71573 30.6709 15 30.6709Z"
              fill="#039BE5"/>
        <path d="M6.86377 15.3466L21.3263 9.7704C21.9975 9.5279 22.5838 9.93415 22.3663 10.9491L22.3675 10.9479L19.905 22.5491C19.7225 23.3716 19.2338 23.5716 18.55 23.1841L14.8 20.4204L12.9913 22.1629C12.7913 22.3629 12.6225 22.5316 12.235 22.5316L12.5013 18.7154L19.4513 12.4366C19.7538 12.1704 19.3838 12.0204 18.985 12.2854L10.3963 17.6929L6.69377 16.5379C5.89002 16.2829 5.87252 15.7341 6.86377 15.3466Z"
              fill="white"/>
    </symbol>

    <symbol id="viber" viewBox="0 0 29 31">
        <path d="M28.1891 18.0383C29.0833 10.5112 27.7595 5.75917 25.3716 3.60982L25.3729 3.60857C21.5188 -0.0619449 8.50273 -0.605216 3.8918 3.77342C1.82113 5.91528 1.09177 9.05876 1.01184 12.9503C0.931911 16.8431 0.836994 24.1355 7.63225 26.1137H7.63849L7.63225 29.1348C7.63225 29.1348 7.58604 30.3587 8.36785 30.6048C9.26206 30.8945 9.66671 30.3263 12.448 27.0042C17.0989 27.4076 20.6707 26.4834 21.0766 26.3485C22.0158 26.0338 27.3299 25.3307 28.1891 18.0383ZM12.9063 24.8786C12.9063 24.8786 9.9627 28.5491 9.04725 29.502C8.74752 29.8117 8.41906 29.783 8.42405 29.1685C8.42405 28.7651 8.44653 24.1529 8.44653 24.1529C2.68536 22.5019 3.02506 16.2924 3.08751 13.044C3.14995 9.79436 3.74443 7.13296 5.49788 5.34079C9.54307 1.54789 20.9543 2.39589 23.8617 5.12848C27.4161 8.27945 26.1509 17.1816 26.1584 17.4851C25.4278 23.5722 21.1216 23.9581 20.3298 24.2216C19.9913 24.334 16.8504 25.1421 12.9063 24.8786Z"
              fill="#8E24AA"/>
        <path d="M14.5349 6.05371C14.0541 6.05371 14.0541 6.80305 14.5349 6.80929C18.2654 6.83802 21.3377 9.43823 21.3714 14.2078C21.3714 14.7111 22.1082 14.7048 22.102 14.2015H22.1007C22.0608 9.06231 18.7062 6.08244 14.5349 6.05371Z"
              fill="#8E24AA"/>
        <path d="M19.4418 13.4172C19.4306 13.9143 20.1662 13.938 20.1724 13.4347C20.2336 10.6009 18.4864 8.26674 15.2031 8.02071C14.7223 7.98574 14.6723 8.74132 15.1519 8.77629C17.9994 8.99235 19.4993 10.9356 19.4418 13.4172Z"
              fill="#8E24AA"/>
        <path d="M18.655 16.6402C18.0381 16.283 17.4099 16.5053 17.1501 16.8563L16.6068 17.5594C16.3308 17.9166 15.815 17.8691 15.815 17.8691C12.0508 16.8738 11.0442 12.9347 11.0442 12.9347C11.0442 12.9347 10.998 12.4014 11.3427 12.1154L12.0221 11.5534C12.3618 11.2837 12.5766 10.6343 12.2307 9.99607C11.3065 8.32629 10.6858 7.75055 10.3698 7.30844C10.0376 6.89256 9.53806 6.79889 9.01851 7.07989H9.00727C7.92698 7.71183 6.74427 8.89454 7.12269 10.1122C7.76837 11.3961 8.95482 15.4887 12.7365 18.581C14.5137 20.0435 17.3262 21.5421 18.5201 21.8881L18.5314 21.9056C19.7078 22.2977 20.8518 21.0688 21.4625 19.956V19.9473C21.7335 19.409 21.6436 18.8995 21.2477 18.566C20.5458 17.8816 19.4868 17.126 18.655 16.6402Z"
              fill="#8E24AA"/>
        <path d="M15.7176 10.8081C16.9178 10.8781 17.4998 11.505 17.5622 12.7926C17.5847 13.2959 18.3153 13.261 18.2928 12.7577C18.2129 11.0767 17.3362 10.14 15.7576 10.0526C15.2767 10.0238 15.2318 10.7794 15.7176 10.8081Z"
              fill="#8E24AA"/>
    </symbol>

    <symbol id="question" viewBox="0 0 30 31">
        <path d="M6.81875 18.9814L1.25 23.3564V3.98145C1.25 3.64992 1.3817 3.33198 1.61612 3.09756C1.85054 2.86314 2.16848 2.73145 2.5 2.73145H21.25C21.5815 2.73145 21.8995 2.86314 22.1339 3.09756C22.3683 3.33198 22.5 3.64992 22.5 3.98145V18.9814H6.81875ZM5.95375 16.4814H20V5.23145H3.75V18.2127L5.95375 16.4814ZM10 21.4814H22.7962L25 23.2127V10.2314H26.25C26.5815 10.2314 26.8995 10.3631 27.1339 10.5976C27.3683 10.832 27.5 11.1499 27.5 11.4814V28.3564L21.9312 23.9814H11.25C10.9185 23.9814 10.6005 23.8498 10.3661 23.6153C10.1317 23.3809 10 23.063 10 22.7314V21.4814Z"/>
    </symbol>

    <symbol id="next" viewBox="0 0 9 14">
        <path d="M1 1L7 6.85366L1 13" stroke-width="2" stroke-linecap="round"/>
    </symbol>

    <symbol id="tab1" viewBox="0 0 25 22">
        <path d="M22 12.3662V19.8H23.1V22H1.1V19.8H2.2V12.3662C1.52281 11.9142 0.967684 11.302 0.583902 10.5839C0.20012 9.86588 -0.000448507 9.06418 7.53074e-07 8.25C7.53074e-07 7.3403 0.246401 6.4636 0.696301 5.7167L3.6795 0.55C3.77604 0.382783 3.9149 0.243924 4.08212 0.147379C4.24933 0.0508342 4.43901 4.90514e-06 4.6321 0H19.569C19.7621 4.90514e-06 19.9518 0.0508342 20.119 0.147379C20.2862 0.243924 20.4251 0.382783 20.5216 0.55L23.4938 5.7002C24.15 6.79016 24.361 8.09109 24.0827 9.33255C23.8045 10.574 23.0586 11.6605 22 12.3662ZM19.8 13.1692C19.0437 13.254 18.278 13.1632 17.5625 12.9037C16.847 12.6442 16.2011 12.2231 15.675 11.6732C15.2132 12.1562 14.6584 12.5406 14.0439 12.8032C13.4295 13.0658 12.7682 13.2011 12.1 13.2011C11.432 13.2014 10.7708 13.0664 10.1563 12.8042C9.5419 12.542 8.98696 12.158 8.525 11.6754C7.99879 12.2251 7.35281 12.646 6.63735 12.9053C5.92188 13.1646 5.15624 13.2553 4.4 13.1703V19.8H19.8V13.1703V13.1692ZM5.2679 2.2L2.5916 6.8343C2.33154 7.47686 2.32373 8.19393 2.56974 8.842C2.81576 9.49007 3.29745 10.0213 3.9184 10.3294C4.53935 10.6375 5.25376 10.6998 5.91864 10.5037C6.58352 10.3076 7.14982 9.86766 7.5042 9.2719C7.8727 8.3512 9.1762 8.3512 9.5458 9.2719C9.74963 9.78276 10.102 10.2208 10.5573 10.5293C11.0126 10.8379 11.55 11.0028 12.1 11.0028C12.65 11.0028 13.1874 10.8379 13.6427 10.5293C14.098 10.2208 14.4504 9.78276 14.6542 9.2719C15.0227 8.3512 16.3262 8.3512 16.6958 9.2719C16.8386 9.62329 17.0525 9.94136 17.3241 10.2061C17.5957 10.4708 17.9191 10.6765 18.274 10.8103C18.6289 10.944 19.0077 11.0029 19.3865 10.9832C19.7652 10.9634 20.1358 10.8656 20.475 10.6958C20.8141 10.5259 21.1144 10.2878 21.3571 9.99629C21.5998 9.70479 21.7795 9.36624 21.885 9.00193C21.9905 8.63762 22.0196 8.25542 21.9702 7.87936C21.9209 7.50329 21.7944 7.14149 21.5985 6.8167L18.931 2.2H5.269H5.2679Z"
              fill="#2AA549"/>
    </symbol>

    <symbol id="tab2" viewBox="0 0 26 24">
        <path d="M12.6627 6.8894C9.84469 6.8894 7.55206 9.18208 7.55206 12C7.55206 14.818 9.84469 17.1106 12.6627 17.1106C15.4807 17.1106 17.7733 14.818 17.7733 12C17.7733 9.18203 15.4807 6.8894 12.6627 6.8894ZM12.6627 15.6505C10.6498 15.6505 9.01224 14.0129 9.01224 12C9.01224 9.98722 10.6498 8.34958 12.6627 8.34958C14.6755 8.34958 16.3131 9.98722 16.3131 12C16.3131 14.0129 14.6755 15.6505 12.6627 15.6505Z"
              fill="#2AA549" stroke="#2AA549" stroke-width="0.3" stroke-miterlimit="10"/>
        <path d="M24.3927 1C22.1552 1 20.2525 2.45935 19.5855 4.4761C16.2497 1.39965 11.2909 0.90723 7.40599 3.23188V1.7608C7.40599 1.35765 7.07911 1.03071 6.6759 1.03071C6.2727 1.03071 5.94582 1.35765 5.94582 1.7608V6.88938H4.53431V1.7608C4.53431 1.35765 4.20743 1.03071 3.80422 1.03071C3.40102 1.03071 3.07413 1.35765 3.07413 1.7608V6.88938H1.66263V1.7608C1.66263 1.35765 1.33575 1.03071 0.932542 1.03071C0.529339 1.03071 0.202454 1.35765 0.202454 1.7608V7.61947C0.202454 8.91328 0.888445 10.0495 1.91553 10.6847L1.44993 20.5672C1.38778 21.8879 2.43833 23 3.77088 23C5.10519 23 6.16752 21.8747 6.09042 20.5424L6.0472 19.7952C10.6496 23.709 17.6465 22.7835 21.0822 17.7989L20.8614 20.6529C20.7656 21.8914 21.7469 22.9513 22.9889 22.9513C24.1656 22.9513 25.1228 21.9941 25.1228 20.8174V1.73009C25.1228 1.32688 24.7959 1 24.3927 1ZM1.79093 8.34956H5.81751C5.13415 10.2281 2.47352 10.2261 1.79093 8.34956ZM3.77083 21.5398C3.27958 21.5398 2.88519 21.1305 2.9085 20.636L3.35347 11.192C3.63932 11.2279 3.86005 11.2269 4.08794 11.209L4.63278 20.6267C4.66125 21.1208 4.26968 21.5398 3.77083 21.5398ZM5.92007 17.5976L5.52577 10.7824C6.64505 10.1706 7.40599 8.9823 7.40599 7.61947V4.98794C11.066 2.23477 16.2992 2.76024 19.3308 6.31412V13.4115C19.3308 13.8147 19.6577 14.1416 20.0609 14.1416H21.1628C19.4258 21.1036 10.4875 23.0933 5.92007 17.5976ZM23.6626 20.8174C23.6626 21.1889 23.3604 21.4912 22.9889 21.4912C22.5982 21.4912 22.2868 21.1596 22.3172 20.7655L22.8817 13.4678C22.9144 13.0442 22.5793 12.6814 22.1538 12.6814H20.7909V6.06195C20.7909 4.32599 22.0254 2.87292 23.6626 2.5345V20.8174Z"
              fill="#2AA549" stroke="#2AA549" stroke-width="0.3" stroke-miterlimit="10"/>
    </symbol>

    <symbol id="tab3" viewBox="0 0 25 22">
        <path d="M1.34502 8.55556H0.122803V1.22589C0.122803 0.54878 0.678914 2.68472e-06 1.33525 2.68472e-06H23.3548C23.5153 -0.000335298 23.6742 0.0312417 23.8223 0.0928962C23.9704 0.154551 24.1048 0.245051 24.2177 0.359131C24.3305 0.473211 24.4195 0.608592 24.4795 0.757396C24.5395 0.9062 24.5694 1.06545 24.5672 1.22589V8.55556H23.345V20.779C23.3455 20.9389 23.3145 21.0973 23.2538 21.2451C23.193 21.393 23.1038 21.5275 22.9911 21.6409C22.8784 21.7542 22.7444 21.8443 22.5969 21.9059C22.4494 21.9676 22.2912 21.9995 22.1314 22H2.55869C2.39883 21.9995 2.24063 21.9676 2.09312 21.9059C1.94561 21.8443 1.81168 21.7542 1.69898 21.6409C1.58628 21.5275 1.49702 21.393 1.43628 21.2451C1.37555 21.0973 1.34454 20.9389 1.34502 20.779V8.55556ZM20.9006 8.55556H3.78947V19.5556H20.9006V8.55556ZM2.56725 2.44445V6.11111H22.1228V2.44445H2.56725ZM8.67836 11H16.0117V13.4444H8.67836V11Z"
              fill="#2AA549"/>
    </symbol>

    <symbol id="tab4" viewBox="0 0 22 22" fill="none">
        <path d="M19.3191 20.4881H20.3191V19.4881V3C20.3191 1.89543 19.4237 1 18.3191 1H3.97388C2.86931 1 1.97388 1.89543 1.97388 3V19.4881V20.4881H2.97388H19.3191Z" stroke="#2AA549" stroke-width="2"/>
        <path d="M13.3627 2L13.3627 20" stroke="#2AA549" stroke-width="2"/>
        <path d="M14.3239 7.50415L1.56734 7.50415" stroke="#2AA549" stroke-width="2"/>
        <path d="M14.6486 14.0359H1.89205" stroke="#2AA549" stroke-width="2"/>
        <rect width="3.23381" height="1.97677" transform="matrix(1 0 0 -1 16.0854 6.6731)" fill="#2AA549"/>
        <rect width="3.23381" height="1.97677" transform="matrix(1 0 0 -1 16.0854 10.7441)" fill="#2AA549"/>
    </symbol>

    <symbol id="tab5" viewBox="0 0 25 22">
        <path d="M21.0969 19.5556H3.98576V20.7778C3.98576 21.1019 3.85699 21.4128 3.62778 21.642C3.39857 21.8712 3.08769 22 2.76354 22H1.54131C1.21716 22 0.906283 21.8712 0.677072 21.642C0.447861 21.4128 0.319092 21.1019 0.319092 20.7778V8.55556L3.3502 1.48133C3.53882 1.04133 3.85248 0.666403 4.25227 0.403065C4.65206 0.139727 5.12037 -0.000424805 5.59909 9.67225e-07H19.4835C19.9618 5.37925e-05 20.4296 0.14043 20.8289 0.403738C21.2282 0.667047 21.5415 1.04172 21.73 1.48133L24.7635 8.55556V20.7778C24.7635 21.1019 24.6348 21.4128 24.4056 21.642C24.1763 21.8712 23.8655 22 23.5413 22H22.3191C21.9949 22 21.6841 21.8712 21.4548 21.642C21.2256 21.4128 21.0969 21.1019 21.0969 20.7778V19.5556ZM22.3191 11H2.76354V17.1111H22.3191V11ZM2.97865 8.55556H22.104L19.4848 2.44445H5.59909L2.97987 8.55556H2.97865ZM5.81909 15.8889C5.33286 15.8889 4.86655 15.6957 4.52273 15.3519C4.17891 15.0081 3.98576 14.5418 3.98576 14.0556C3.98576 13.5693 4.17891 13.103 4.52273 12.7592C4.86655 12.4154 5.33286 12.2222 5.81909 12.2222C6.30532 12.2222 6.77164 12.4154 7.11545 12.7592C7.45927 13.103 7.65242 13.5693 7.65242 14.0556C7.65242 14.5418 7.45927 15.0081 7.11545 15.3519C6.77164 15.6957 6.30532 15.8889 5.81909 15.8889ZM19.2635 15.8889C18.7773 15.8889 18.311 15.6957 17.9672 15.3519C17.6234 15.0081 17.4302 14.5418 17.4302 14.0556C17.4302 13.5693 17.6234 13.103 17.9672 12.7592C18.311 12.4154 18.7773 12.2222 19.2635 12.2222C19.7498 12.2222 20.2161 12.4154 20.5599 12.7592C20.9037 13.103 21.0969 13.5693 21.0969 14.0556C21.0969 14.5418 20.9037 15.0081 20.5599 15.3519C20.2161 15.6957 19.7498 15.8889 19.2635 15.8889Z" fill="#2AA549"/>
    </symbol>

    <symbol id="basket" viewBox="0 0 25 22" fill="none">
        <path d="M9.7432 21.9999C10.8604 21.9999 11.7661 21.0899 11.7661 19.9674C11.7661 18.8448 10.8604 17.9348 9.7432 17.9348C8.62601 17.9348 7.72035 18.8448 7.72035 19.9674C7.72035 21.0899 8.62601 21.9999 9.7432 21.9999Z" fill="#2AA549"/>
        <path d="M17.9337 21.9999C19.0509 21.9999 19.9566 21.0899 19.9566 19.9674C19.9566 18.8448 19.0509 17.9348 17.9337 17.9348C16.8165 17.9348 15.9109 18.8448 15.9109 19.9674C15.9109 21.0899 16.8165 21.9999 17.9337 21.9999Z" fill="#2AA549"/>
        <path d="M23.0923 6.4576C20.5056 6.4576 7.69779 6.4576 7.69779 6.4576C7.69779 6.4576 7.67975 6.46212 7.65418 6.46969V6.4576C7.65418 6.4576 7.43461 4.57615 7.30826 3.7949C7.18342 3.01513 5.2433 2.04041 1.06678 0.0607733C0.0831591 -0.353243 -0.736465 1.44956 1.06678 2.39707L4.36046 3.94299C4.36046 3.94299 5.12595 4.38879 5.19215 4.99024C5.25836 5.5917 6.59383 15.5473 6.59383 15.5473C6.59383 15.5473 6.64649 16.93 7.89927 16.93C9.15205 16.93 19.4181 16.93 20.4679 16.93C21.5177 16.93 21.7237 15.8269 21.7237 15.8269L24.2127 8.3934C24.2128 8.3964 24.9513 6.4576 23.0923 6.4576ZM20.0197 14.5348H8.65277L7.89776 8.49767H21.799L20.0197 14.5348Z" fill="#2AA549"/>
    </symbol>

</svg>